<svg width="1000" height="1000" viewBox="0 0 1000 1000" fill="none" xmlns="http://www.w3.org/2000/svg">
<rect width="1000" height="1000" fill="#442292"/>
<rect x="424" y="267.324" width="199" height="206" fill="#22C55E"/>
<path d="M532.514 336.39C533.148 332.807 535.09 329.587 537.963 327.353C540.88 325.084 544.545 323.997 548.228 324.309L551.858 324.617C563.247 325.582 572 335.108 572 346.538V392.985C572 404.908 561.646 414.189 549.794 412.89C541.252 411.954 534.259 405.672 532.417 397.278L527.435 374.584C526.818 371.771 526.759 368.864 527.261 366.029L532.514 336.39Z" fill="white"/>
<path fill-rule="evenodd" clip-rule="evenodd" d="M350.5 168.324C322.886 168.324 300.5 190.709 300.5 218.324V518.324C300.5 545.938 322.886 568.324 350.5 568.324H500.5C610.957 568.324 700.5 478.781 700.5 368.324C700.5 257.867 610.957 168.324 500.5 168.324H350.5ZM550.374 410.609C582.538 392.039 582.538 345.615 550.374 327.045L540.709 321.465C540.918 318.478 541.068 315.32 541.171 311.945C541.201 310.954 540.672 310.031 539.802 309.555L469.302 271.061C469.231 271.023 469.159 270.987 469.085 270.955C458.173 266.239 449.583 263.974 442.308 266.169C434.891 268.407 429.698 274.985 424.759 285.414C424.587 285.777 424.5 286.175 424.506 286.578L424.941 316.945L424.506 448.951C424.504 449.38 424.608 449.803 424.808 450.183C430.043 460.152 435.74 466.169 443.029 469.15C450.213 472.089 458.498 471.878 468.413 470.462C473.808 469.692 481.017 466.638 488.562 462.733C496.192 458.784 504.465 453.803 512.082 448.936C519.705 444.065 526.705 439.285 531.798 435.725C534.346 433.944 536.418 432.467 537.854 431.434C538.573 430.917 539.132 430.511 539.513 430.234C539.647 430.137 539.759 430.055 539.848 429.99L539.948 429.917L540.096 429.809L540.099 429.807C540.099 429.807 540.099 429.806 538.541 427.686L540.099 429.806C540.789 429.299 541.189 428.489 541.172 427.633C541.09 423.567 540.956 419.796 540.705 416.191L550.374 410.609Z" fill="#FFD700"/>
<path d="M539.5 321.324C586.293 347.06 580.444 397.776 539.5 415.324" stroke="black" stroke-width="8"/>
<path d="M523.209 369.203C534.581 349.693 538.197 337.144 539 311.478L466.224 272.768C443.699 263.285 434.078 265.281 424 286.011L424.45 316.571M523.209 369.203C536.587 393.634 538.548 406.187 539 427.946C539 427.946 486.522 465.519 466.224 468.342C445.925 471.165 434.487 468.789 424 449.338L424.45 316.571M523.209 369.203C489.222 327.3 466.945 318.82 424.45 316.571" stroke="black" stroke-width="8" stroke-linejoin="round"/>
<path d="M240.36 714.324C240.36 758.424 221.64 777.324 177.72 777.324H128.4V651.324H177.72C221.64 651.324 240.36 670.224 240.36 714.324ZM176.28 672.204H158.1V756.444H176.28C199.5 756.444 209.4 743.844 209.4 714.324C209.4 684.804 199.5 672.204 176.28 672.204ZM335.878 777.324L328.318 751.404H283.498L275.578 777.324H245.878L287.098 651.324H328.498L366.838 777.324H335.878ZM306.358 675.804L289.438 731.964H322.738L306.358 675.804ZM465.187 651.324H493.267V777.324H459.067L411.367 688.224V777.324H383.107V651.324H417.487L465.187 740.424V651.324ZM579.39 724.404V704.964H640.23V714.324C640.23 760.944 622.05 780.924 579.39 780.924C534.21 780.924 514.95 760.944 514.95 714.324C514.95 667.704 534.21 647.724 579.39 647.724C614.67 647.724 632.49 660.684 638.43 690.924H610.35C606.75 676.344 597.57 670.224 579.39 670.224C555.81 670.224 546.09 683.184 546.09 714.324C546.09 745.284 555.99 758.424 579.39 758.424C602.43 758.424 612.15 748.344 612.15 724.404H579.39ZM691.596 651.324V700.284L734.256 651.324H770.076L716.796 712.524L773.676 777.324H737.856L691.596 724.584V777.324H661.896V651.324H691.596ZM880.585 672.204H819.565V701.724H873.385V722.604H819.565V756.444H880.585V777.324H789.865V651.324H880.585V672.204Z" fill="white"/>
<path d="M875.072 803.49C876.492 803.49 877.746 803.779 878.833 804.355C879.942 804.91 880.808 805.609 881.429 806.452V803.79H885.257V822.429C885.257 824.115 884.902 825.613 884.192 826.922C883.481 828.253 882.45 829.296 881.096 830.051C879.765 830.805 878.167 831.182 876.303 831.182C873.818 831.182 871.754 830.594 870.112 829.418C868.47 828.264 867.539 826.689 867.317 824.692H871.078C871.366 825.646 871.976 826.411 872.908 826.988C873.862 827.588 874.994 827.887 876.303 827.887C877.834 827.887 879.066 827.421 879.998 826.489C880.952 825.557 881.429 824.204 881.429 822.429V819.366C880.785 820.232 879.909 820.964 878.8 821.563C877.712 822.14 876.47 822.429 875.072 822.429C873.474 822.429 872.01 822.029 870.678 821.23C869.369 820.409 868.326 819.278 867.55 817.835C866.795 816.371 866.418 814.718 866.418 812.876C866.418 811.034 866.795 809.404 867.55 807.983C868.326 806.563 869.369 805.465 870.678 804.688C872.01 803.89 873.474 803.49 875.072 803.49ZM881.429 812.943C881.429 811.678 881.163 810.58 880.63 809.648C880.12 808.716 879.443 808.006 878.6 807.517C877.757 807.029 876.847 806.785 875.871 806.785C874.894 806.785 873.984 807.029 873.141 807.517C872.298 807.983 871.61 808.682 871.078 809.614C870.567 810.524 870.312 811.611 870.312 812.876C870.312 814.141 870.567 815.25 871.078 816.204C871.61 817.159 872.298 817.891 873.141 818.401C874.007 818.889 874.916 819.133 875.871 819.133C876.847 819.133 877.757 818.889 878.6 818.401C879.443 817.913 880.12 817.203 880.63 816.271C881.163 815.317 881.429 814.207 881.429 812.943Z" fill="#FFD700"/>
<path d="M855.321 803.49C856.764 803.49 858.05 803.79 859.182 804.389C860.336 804.988 861.235 805.875 861.878 807.051C862.522 808.227 862.843 809.648 862.843 811.312V822.129H859.082V811.878C859.082 810.236 858.672 808.982 857.851 808.117C857.03 807.229 855.909 806.785 854.489 806.785C853.069 806.785 851.937 807.229 851.094 808.117C850.273 808.982 849.863 810.236 849.863 811.878V822.129H846.068V803.79H849.863V805.887C850.484 805.132 851.272 804.544 852.226 804.123C853.202 803.701 854.234 803.49 855.321 803.49Z" fill="#FFD700"/>
<path d="M822.245 812.876C822.245 811.034 822.622 809.404 823.376 807.983C824.153 806.563 825.196 805.465 826.505 804.688C827.836 803.89 829.301 803.49 830.898 803.49C832.341 803.49 833.594 803.779 834.659 804.355C835.747 804.91 836.612 805.609 837.256 806.452V803.79H841.083V822.129H837.256V819.4C836.612 820.265 835.736 820.986 834.626 821.563C833.517 822.14 832.252 822.429 830.832 822.429C829.256 822.429 827.814 822.029 826.505 821.23C825.196 820.409 824.153 819.278 823.376 817.835C822.622 816.371 822.245 814.718 822.245 812.876ZM837.256 812.943C837.256 811.678 836.989 810.58 836.457 809.648C835.946 808.716 835.27 808.006 834.426 807.517C833.583 807.029 832.674 806.785 831.697 806.785C830.721 806.785 829.811 807.029 828.968 807.517C828.125 807.983 827.437 808.682 826.904 809.614C826.394 810.524 826.139 811.611 826.139 812.876C826.139 814.141 826.394 815.25 826.904 816.204C827.437 817.159 828.125 817.891 828.968 818.401C829.833 818.889 830.743 819.133 831.697 819.133C832.674 819.133 833.583 818.889 834.426 818.401C835.27 817.913 835.946 817.203 836.457 816.271C836.989 815.317 837.256 814.207 837.256 812.943Z" fill="#FFD700"/>
<path d="M812.337 812.976L820.791 822.129H815.665L808.875 814.241V822.129H805.081V797.499H808.875V811.811L815.532 803.79H820.791L812.337 812.976Z" fill="#FFD700"/>
<path d="M801.346 812.51C801.346 813.198 801.302 813.819 801.213 814.374H787.2C787.311 815.838 787.855 817.014 788.831 817.902C789.808 818.79 791.006 819.233 792.426 819.233C794.467 819.233 795.91 818.379 796.753 816.67H800.847C800.292 818.357 799.282 819.744 797.818 820.831C796.376 821.896 794.578 822.429 792.426 822.429C790.673 822.429 789.098 822.04 787.7 821.264C786.324 820.465 785.237 819.355 784.438 817.935C783.661 816.493 783.273 814.829 783.273 812.943C783.273 811.057 783.65 809.404 784.405 807.983C785.181 806.541 786.257 805.432 787.633 804.655C789.031 803.878 790.629 803.49 792.426 803.49C794.157 803.49 795.699 803.867 797.052 804.622C798.406 805.376 799.46 806.441 800.214 807.817C800.969 809.171 801.346 810.735 801.346 812.51ZM797.385 811.312C797.363 809.914 796.864 808.793 795.888 807.95C794.911 807.107 793.702 806.685 792.26 806.685C790.95 806.685 789.83 807.107 788.898 807.95C787.966 808.771 787.411 809.892 787.234 811.312H797.385Z" fill="#FFD700"/>
<path d="M775.559 806.452C776.114 805.52 776.846 804.799 777.756 804.289C778.688 803.756 779.787 803.49 781.051 803.49V807.418H780.086C778.599 807.418 777.468 807.795 776.691 808.549C775.937 809.304 775.559 810.613 775.559 812.477V822.129H771.765V803.79H775.559V806.452Z" fill="#FFD700"/>
<path d="M759.403 803.49C760.846 803.49 762.132 803.79 763.264 804.389C764.418 804.988 765.317 805.875 765.96 807.051C766.604 808.227 766.925 809.648 766.925 811.312V822.129H763.164V811.878C763.164 810.236 762.754 808.982 761.933 808.117C761.112 807.229 759.991 806.785 758.571 806.785C757.151 806.785 756.019 807.229 755.176 808.117C754.355 808.982 753.945 810.236 753.945 811.878V822.129H750.15V803.79H753.945V805.887C754.566 805.132 755.354 804.544 756.308 804.123C757.284 803.701 758.316 803.49 759.403 803.49Z" fill="#FFD700"/>
<path d="M736.491 802.058V808.848H744.479V811.943H736.491V819.032H745.477V822.128H732.696V798.962H745.477V802.058H736.491Z" fill="#FFD700"/>
<path d="M719.066 822.128H715.272L703.855 804.854V822.128H700.061V798.962H703.855L715.272 816.203V798.962H719.066V822.128Z" fill="#FFD700"/>
<path d="M687.595 822.362C686.042 822.362 684.644 822.096 683.401 821.563C682.159 821.008 681.182 820.232 680.472 819.233C679.762 818.235 679.407 817.07 679.407 815.739H683.468C683.557 816.737 683.945 817.558 684.633 818.202C685.343 818.845 686.33 819.167 687.595 819.167C688.904 819.167 689.925 818.856 690.657 818.235C691.389 817.591 691.755 816.77 691.755 815.772C691.755 814.995 691.522 814.363 691.056 813.875C690.613 813.386 690.047 813.009 689.359 812.743C688.693 812.477 687.761 812.188 686.563 811.878C685.054 811.478 683.823 811.079 682.869 810.679C681.937 810.258 681.138 809.614 680.472 808.749C679.807 807.884 679.474 806.73 679.474 805.287C679.474 803.956 679.807 802.791 680.472 801.793C681.138 800.794 682.07 800.029 683.268 799.496C684.466 798.964 685.853 798.697 687.429 798.697C689.67 798.697 691.5 799.263 692.92 800.395C694.363 801.504 695.162 803.035 695.317 804.988H691.123C691.057 804.145 690.657 803.424 689.925 802.824C689.193 802.225 688.227 801.926 687.029 801.926C685.942 801.926 685.054 802.203 684.367 802.758C683.679 803.313 683.335 804.111 683.335 805.154C683.335 805.864 683.546 806.452 683.967 806.918C684.411 807.362 684.966 807.717 685.631 807.983C686.297 808.25 687.207 808.538 688.361 808.849C689.892 809.27 691.134 809.692 692.088 810.114C693.065 810.535 693.886 811.19 694.551 812.077C695.239 812.943 695.583 814.108 695.583 815.572C695.583 816.748 695.261 817.858 694.618 818.9C693.997 819.943 693.076 820.787 691.855 821.43C690.657 822.051 689.237 822.362 687.595 822.362Z" fill="#FFD700"/>
<path d="M670.713 817.402H661.028L659.364 822.128H655.403L663.69 798.962H668.084L676.372 822.128H672.378L670.713 817.402ZM669.648 814.306L665.887 803.556L662.093 814.306H669.648Z" fill="#FFD700"/>
<path d="M624.298 812.876C624.298 811.034 624.675 809.404 625.43 807.983C626.206 806.563 627.249 805.465 628.558 804.688C629.89 803.89 631.354 803.49 632.952 803.49C634.394 803.49 635.648 803.779 636.713 804.355C637.8 804.91 638.665 805.609 639.309 806.452V803.79H643.136V822.129H639.309V819.4C638.665 820.265 637.789 820.986 636.679 821.563C635.57 822.14 634.305 822.429 632.885 822.429C631.31 822.429 629.867 822.029 628.558 821.23C627.249 820.409 626.206 819.278 625.43 817.835C624.675 816.371 624.298 814.718 624.298 812.876ZM639.309 812.943C639.309 811.678 639.043 810.58 638.51 809.648C638 808.716 637.323 808.006 636.48 807.517C635.637 807.029 634.727 806.785 633.75 806.785C632.774 806.785 631.864 807.029 631.021 807.517C630.178 807.983 629.49 808.682 628.958 809.614C628.447 810.524 628.192 811.611 628.192 812.876C628.192 814.141 628.447 815.25 628.958 816.204C629.49 817.159 630.178 817.891 631.021 818.401C631.887 818.889 632.796 819.133 633.75 819.133C634.727 819.133 635.637 818.889 636.48 818.401C637.323 817.913 638 817.203 638.51 816.271C639.043 815.317 639.309 814.207 639.309 812.943Z" fill="#FFD700"/>
<path d="M618.718 801.359C618.03 801.359 617.453 801.126 616.987 800.66C616.521 800.194 616.288 799.618 616.288 798.93C616.288 798.242 616.521 797.665 616.987 797.199C617.453 796.733 618.03 796.5 618.718 796.5C619.384 796.5 619.95 796.733 620.416 797.199C620.882 797.665 621.114 798.242 621.114 798.93C621.114 799.618 620.882 800.194 620.416 800.66C619.95 801.126 619.384 801.359 618.718 801.359ZM620.582 825.723C620.582 827.52 620.127 828.818 619.217 829.617C618.33 830.438 617.032 830.849 615.323 830.849H613.359V827.654H614.657C615.434 827.654 615.978 827.498 616.288 827.188C616.621 826.899 616.788 826.411 616.788 825.723V803.789H620.582V825.723Z" fill="#FFD700"/>
<path d="M607.807 806.452C608.362 805.52 609.094 804.799 610.004 804.289C610.936 803.756 612.034 803.49 613.299 803.49V807.418H612.334C610.847 807.418 609.715 807.795 608.939 808.549C608.184 809.304 607.807 810.613 607.807 812.477V822.129H604.013V803.79H607.807V806.452Z" fill="#FFD700"/>
<path d="M600.279 812.51C600.279 813.198 600.234 813.819 600.145 814.374H586.133C586.244 815.838 586.788 817.014 587.764 817.902C588.74 818.79 589.938 819.233 591.359 819.233C593.4 819.233 594.842 818.379 595.685 816.67H599.779C599.225 818.357 598.215 819.744 596.751 820.831C595.308 821.896 593.511 822.429 591.359 822.429C589.606 822.429 588.03 822.04 586.632 821.264C585.257 820.465 584.169 819.355 583.371 817.935C582.594 816.493 582.206 814.829 582.206 812.943C582.206 811.057 582.583 809.404 583.337 807.983C584.114 806.541 585.19 805.432 586.566 804.655C587.964 803.878 589.561 803.49 591.359 803.49C593.089 803.49 594.631 803.867 595.985 804.622C597.339 805.376 598.393 806.441 599.147 807.817C599.901 809.171 600.279 810.735 600.279 812.51ZM596.318 811.312C596.296 809.914 595.796 808.793 594.82 807.95C593.844 807.107 592.634 806.685 591.192 806.685C589.883 806.685 588.762 807.107 587.831 807.95C586.899 808.771 586.344 809.892 586.166 811.312H596.318Z" fill="#FFD700"/>
<path d="M571.108 803.49C572.551 803.49 573.838 803.79 574.969 804.389C576.123 804.988 577.022 805.875 577.665 807.051C578.309 808.227 578.63 809.648 578.63 811.312V822.129H574.869V811.878C574.869 810.236 574.459 808.982 573.638 808.117C572.817 807.229 571.696 806.785 570.276 806.785C568.856 806.785 567.724 807.229 566.881 808.117C566.06 808.982 565.65 810.236 565.65 811.878V822.129H561.855V803.79H565.65V805.887C566.271 805.132 567.059 804.544 568.013 804.123C568.989 803.701 570.021 803.49 571.108 803.49Z" fill="#FFD700"/>
<path d="M555.01 801.359C554.322 801.359 553.745 801.126 553.28 800.66C552.814 800.194 552.581 799.618 552.581 798.93C552.581 798.242 552.814 797.665 553.28 797.199C553.745 796.733 554.322 796.5 555.01 796.5C555.676 796.5 556.242 796.733 556.708 797.199C557.174 797.665 557.407 798.242 557.407 798.93C557.407 799.618 557.174 800.194 556.708 800.66C556.242 801.126 555.676 801.359 555.01 801.359ZM556.874 803.789V822.128H553.08V803.789H556.874Z" fill="#FFD700"/>
<path d="M544.766 822.129L535.813 811.778V822.129H532.019V798.997H535.813V809.548L544.799 798.997H549.559L539.507 810.579L549.725 822.129H544.766Z" fill="#FFD700"/>
<path d="M511.01 803.49C512.452 803.49 513.739 803.79 514.871 804.389C516.024 804.988 516.923 805.875 517.567 807.051C518.21 808.227 518.532 809.648 518.532 811.312V822.129H514.771V811.878C514.771 810.236 514.36 808.982 513.539 808.117C512.718 807.229 511.598 806.785 510.178 806.785C508.758 806.785 507.626 807.229 506.783 808.117C505.962 808.982 505.551 810.236 505.551 811.878V822.129H501.757V803.79H505.551V805.887C506.172 805.132 506.96 804.544 507.914 804.123C508.891 803.701 509.922 803.49 511.01 803.49Z" fill="#FFD700"/>
<path d="M477.936 812.876C477.936 811.034 478.313 809.404 479.068 807.983C479.844 806.563 480.887 805.465 482.196 804.688C483.528 803.89 484.992 803.49 486.59 803.49C488.032 803.49 489.286 803.779 490.351 804.355C491.438 804.91 492.303 805.609 492.947 806.452V803.79H496.775V822.129H492.947V819.4C492.303 820.265 491.427 820.986 490.318 821.563C489.208 822.14 487.943 822.429 486.523 822.429C484.948 822.429 483.506 822.029 482.196 821.23C480.887 820.409 479.844 819.278 479.068 817.835C478.313 816.371 477.936 814.718 477.936 812.876ZM492.947 812.943C492.947 811.678 492.681 810.58 492.148 809.648C491.638 808.716 490.961 808.006 490.118 807.517C489.275 807.029 488.365 806.785 487.389 806.785C486.412 806.785 485.503 807.029 484.659 807.517C483.816 807.983 483.128 808.682 482.596 809.614C482.085 810.524 481.83 811.611 481.83 812.876C481.83 814.141 482.085 815.25 482.596 816.204C483.128 817.159 483.816 817.891 484.659 818.401C485.525 818.889 486.434 819.133 487.389 819.133C488.365 819.133 489.275 818.889 490.118 818.401C490.961 817.913 491.638 817.203 492.148 816.271C492.681 815.317 492.947 814.207 492.947 812.943Z" fill="#FFD700"/>
<path d="M455.377 812.876C455.377 811.035 455.755 809.404 456.509 807.984C457.286 806.563 458.329 805.465 459.638 804.688C460.969 803.89 462.445 803.49 464.064 803.49C465.263 803.49 466.439 803.756 467.593 804.289C468.769 804.799 469.701 805.487 470.388 806.353V797.499H474.216V822.129H470.388V819.367C469.767 820.254 468.902 820.986 467.792 821.563C466.705 822.14 465.451 822.429 464.031 822.429C462.434 822.429 460.969 822.029 459.638 821.23C458.329 820.409 457.286 819.278 456.509 817.835C455.755 816.371 455.377 814.718 455.377 812.876ZM470.388 812.943C470.388 811.678 470.122 810.58 469.59 809.648C469.079 808.716 468.402 808.006 467.559 807.518C466.716 807.029 465.806 806.785 464.83 806.785C463.854 806.785 462.944 807.029 462.101 807.518C461.258 807.984 460.57 808.682 460.037 809.614C459.527 810.524 459.272 811.611 459.272 812.876C459.272 814.141 459.527 815.25 460.037 816.205C460.57 817.159 461.258 817.891 462.101 818.401C462.966 818.889 463.876 819.134 464.83 819.134C465.806 819.134 466.716 818.889 467.559 818.401C468.402 817.913 469.079 817.203 469.59 816.271C470.122 815.317 470.388 814.208 470.388 812.943Z" fill="#FFD700"/>
<path d="M441.15 801.359C440.463 801.359 439.886 801.126 439.42 800.66C438.954 800.194 438.721 799.618 438.721 798.93C438.721 798.242 438.954 797.665 439.42 797.199C439.886 796.733 440.463 796.5 441.15 796.5C441.816 796.5 442.382 796.733 442.848 797.199C443.314 797.665 443.547 798.242 443.547 798.93C443.547 799.618 443.314 800.194 442.848 800.66C442.382 801.126 441.816 801.359 441.15 801.359ZM443.014 803.789V822.128H439.22V803.789H443.014Z" fill="#FFD700"/>
<path d="M428.097 822.429C426.655 822.429 425.357 822.173 424.203 821.663C423.071 821.13 422.173 820.42 421.507 819.533C420.841 818.623 420.486 817.613 420.442 816.504H424.369C424.436 817.281 424.802 817.935 425.468 818.468C426.156 818.978 427.01 819.233 428.031 819.233C429.096 819.233 429.917 819.034 430.494 818.634C431.093 818.213 431.392 817.68 431.392 817.037C431.392 816.349 431.059 815.838 430.394 815.506C429.75 815.173 428.718 814.807 427.298 814.407C425.923 814.03 424.802 813.664 423.937 813.309C423.071 812.954 422.317 812.41 421.673 811.678C421.052 810.946 420.741 809.98 420.741 808.782C420.741 807.806 421.03 806.918 421.607 806.12C422.184 805.299 423.005 804.655 424.07 804.189C425.157 803.723 426.4 803.49 427.798 803.49C429.883 803.49 431.559 804.023 432.823 805.088C434.11 806.131 434.798 807.562 434.887 809.381H431.093C431.026 808.56 430.693 807.906 430.094 807.418C429.495 806.929 428.685 806.685 427.664 806.685C426.666 806.685 425.9 806.874 425.368 807.251C424.835 807.628 424.569 808.128 424.569 808.749C424.569 809.237 424.747 809.648 425.102 809.98C425.457 810.313 425.889 810.58 426.4 810.779C426.91 810.957 427.664 811.19 428.663 811.478C429.994 811.833 431.082 812.199 431.925 812.577C432.79 812.932 433.533 813.464 434.155 814.174C434.776 814.884 435.098 815.827 435.12 817.003C435.12 818.046 434.832 818.978 434.255 819.799C433.678 820.62 432.857 821.264 431.792 821.73C430.749 822.196 429.517 822.429 428.097 822.429Z" fill="#FFD700"/>
<path d="M409.08 803.49C410.522 803.49 411.809 803.79 412.94 804.389C414.094 804.988 414.993 805.875 415.636 807.051C416.28 808.227 416.602 809.648 416.602 811.312V822.129H412.841V811.878C412.841 810.236 412.43 808.982 411.609 808.117C410.788 807.229 409.668 806.785 408.247 806.785C406.827 806.785 405.696 807.229 404.852 808.117C404.031 808.982 403.621 810.236 403.621 811.878V822.129H399.827V803.79H403.621V805.887C404.242 805.132 405.03 804.544 405.984 804.123C406.96 803.701 407.992 803.49 409.08 803.49Z" fill="#FFD700"/>
<path d="M396.091 812.51C396.091 813.198 396.047 813.819 395.958 814.374H381.946C382.056 815.838 382.6 817.014 383.576 817.902C384.553 818.79 385.751 819.233 387.171 819.233C389.212 819.233 390.655 818.379 391.498 816.67H395.592C395.037 818.357 394.028 819.744 392.563 820.831C391.121 821.896 389.323 822.429 387.171 822.429C385.418 822.429 383.843 822.04 382.445 821.264C381.069 820.465 379.982 819.355 379.183 817.935C378.406 816.493 378.018 814.829 378.018 812.943C378.018 811.057 378.395 809.404 379.15 807.983C379.926 806.541 381.003 805.432 382.378 804.655C383.776 803.878 385.374 803.49 387.171 803.49C388.902 803.49 390.444 803.867 391.798 804.622C393.151 805.376 394.205 806.441 394.959 807.817C395.714 809.171 396.091 810.735 396.091 812.51ZM392.13 811.312C392.108 809.914 391.609 808.793 390.633 807.95C389.656 807.107 388.447 806.685 387.005 806.685C385.696 806.685 384.575 807.107 383.643 807.95C382.711 808.771 382.156 809.892 381.979 811.312H392.13Z" fill="#FFD700"/>
<path d="M368.162 822.429C366.719 822.429 365.421 822.173 364.267 821.663C363.136 821.13 362.237 820.42 361.571 819.533C360.906 818.623 360.551 817.613 360.506 816.504H364.434C364.5 817.281 364.867 817.935 365.532 818.468C366.22 818.978 367.074 819.233 368.095 819.233C369.16 819.233 369.981 819.034 370.558 818.634C371.157 818.213 371.457 817.68 371.457 817.037C371.457 816.349 371.124 815.838 370.458 815.506C369.815 815.173 368.783 814.807 367.363 814.407C365.987 814.03 364.867 813.664 364.001 813.309C363.136 812.954 362.381 812.41 361.738 811.678C361.117 810.946 360.806 809.98 360.806 808.782C360.806 807.806 361.094 806.918 361.671 806.12C362.248 805.299 363.069 804.655 364.134 804.189C365.222 803.723 366.464 803.49 367.862 803.49C369.948 803.49 371.623 804.023 372.888 805.088C374.175 806.131 374.863 807.562 374.951 809.381H371.157C371.091 808.56 370.758 807.906 370.159 807.418C369.56 806.929 368.75 806.685 367.729 806.685C366.73 806.685 365.965 806.874 365.432 807.251C364.9 807.628 364.634 808.128 364.634 808.749C364.634 809.237 364.811 809.648 365.166 809.98C365.521 810.313 365.954 810.58 366.464 810.779C366.974 810.957 367.729 811.19 368.727 811.478C370.059 811.833 371.146 812.199 371.989 812.577C372.855 812.932 373.598 813.464 374.219 814.174C374.841 814.884 375.162 815.827 375.184 817.003C375.184 818.046 374.896 818.978 374.319 819.799C373.742 820.62 372.921 821.264 371.856 821.73C370.813 822.196 369.582 822.429 368.162 822.429Z" fill="#FFD700"/>
<path d="M342.742 806.519C343.385 805.631 344.262 804.91 345.371 804.356C346.503 803.779 347.756 803.49 349.132 803.49C350.752 803.49 352.216 803.879 353.526 804.655C354.835 805.432 355.866 806.541 356.621 807.984C357.375 809.404 357.753 811.035 357.753 812.876C357.753 814.718 357.375 816.371 356.621 817.835C355.866 819.278 354.824 820.409 353.492 821.23C352.183 822.029 350.73 822.429 349.132 822.429C347.712 822.429 346.447 822.151 345.338 821.597C344.25 821.042 343.385 820.332 342.742 819.466V822.129H338.947V797.499H342.742V806.519ZM353.892 812.876C353.892 811.611 353.625 810.524 353.093 809.614C352.582 808.682 351.895 807.984 351.029 807.518C350.186 807.029 349.276 806.785 348.3 806.785C347.346 806.785 346.436 807.029 345.571 807.518C344.728 808.006 344.04 808.716 343.507 809.648C342.997 810.58 342.742 811.678 342.742 812.943C342.742 814.208 342.997 815.317 343.507 816.271C344.04 817.203 344.728 817.913 345.571 818.401C346.436 818.889 347.346 819.134 348.3 819.134C349.276 819.134 350.186 818.889 351.029 818.401C351.895 817.891 352.582 817.159 353.093 816.205C353.625 815.25 353.892 814.141 353.892 812.876Z" fill="#FFD700"/>
<path d="M329.686 817.402H320.001L318.337 822.128H314.376L322.664 798.962H327.057L335.345 822.128H331.351L329.686 817.402ZM328.621 814.306L324.86 803.556L321.066 814.306H328.621Z" fill="#FFD700"/>
<path d="M300.248 801.359C299.56 801.359 298.983 801.126 298.517 800.66C298.051 800.194 297.818 799.618 297.818 798.93C297.818 798.242 298.051 797.665 298.517 797.199C298.983 796.733 299.56 796.5 300.248 796.5C300.913 796.5 301.479 796.733 301.945 797.199C302.411 797.665 302.644 798.242 302.644 798.93C302.644 799.618 302.411 800.194 301.945 800.66C301.479 801.126 300.913 801.359 300.248 801.359ZM302.111 803.789V822.128H298.317V803.789H302.111Z" fill="#FFD700"/>
<path d="M287.194 822.429C285.752 822.429 284.454 822.173 283.3 821.663C282.168 821.13 281.27 820.42 280.604 819.533C279.938 818.623 279.583 817.613 279.539 816.504H283.467C283.533 817.281 283.899 817.935 284.565 818.468C285.253 818.978 286.107 819.233 287.128 819.233C288.193 819.233 289.014 819.034 289.591 818.634C290.19 818.213 290.489 817.68 290.489 817.037C290.489 816.349 290.157 815.838 289.491 815.506C288.847 815.173 287.816 814.807 286.396 814.407C285.02 814.03 283.899 813.664 283.034 813.309C282.168 812.954 281.414 812.41 280.771 811.678C280.149 810.946 279.839 809.98 279.839 808.782C279.839 807.806 280.127 806.918 280.704 806.12C281.281 805.299 282.102 804.655 283.167 804.189C284.254 803.723 285.497 803.49 286.895 803.49C288.981 803.49 290.656 804.023 291.921 805.088C293.208 806.131 293.895 807.562 293.984 809.381H290.19C290.123 808.56 289.79 807.906 289.191 807.418C288.592 806.929 287.782 806.685 286.762 806.685C285.763 806.685 284.998 806.874 284.465 807.251C283.933 807.628 283.666 808.128 283.666 808.749C283.666 809.237 283.844 809.648 284.199 809.98C284.554 810.313 284.986 810.58 285.497 810.779C286.007 810.957 286.762 811.19 287.76 811.478C289.091 811.833 290.179 812.199 291.022 812.577C291.887 812.932 292.631 813.464 293.252 814.174C293.873 814.884 294.195 815.827 294.217 817.003C294.217 818.046 293.929 818.978 293.352 819.799C292.775 820.62 291.954 821.264 290.889 821.73C289.846 822.196 288.614 822.429 287.194 822.429Z" fill="#FFD700"/>
<path d="M256.715 812.876C256.715 811.034 257.093 809.404 257.847 807.983C258.624 806.563 259.666 805.465 260.976 804.688C262.307 803.89 263.771 803.49 265.369 803.49C266.811 803.49 268.065 803.779 269.13 804.355C270.217 804.91 271.083 805.609 271.726 806.452V803.79H275.554V822.129H271.726V819.4C271.083 820.265 270.206 820.986 269.097 821.563C267.987 822.14 266.723 822.429 265.303 822.429C263.727 822.429 262.285 822.029 260.976 821.23C259.666 820.409 258.624 819.278 257.847 817.835C257.093 816.371 256.715 814.718 256.715 812.876ZM271.726 812.943C271.726 811.678 271.46 810.58 270.927 809.648C270.417 808.716 269.74 808.006 268.897 807.517C268.054 807.029 267.144 806.785 266.168 806.785C265.192 806.785 264.282 807.029 263.439 807.517C262.595 807.983 261.908 808.682 261.375 809.614C260.865 810.524 260.61 811.611 260.61 812.876C260.61 814.141 260.865 815.25 261.375 816.204C261.908 817.159 262.595 817.891 263.439 818.401C264.304 818.889 265.214 819.133 266.168 819.133C267.144 819.133 268.054 818.889 268.897 818.401C269.74 817.913 270.417 817.203 270.927 816.271C271.46 815.317 271.726 814.207 271.726 812.943Z" fill="#FFD700"/>
<path d="M246.858 822.429C245.416 822.429 244.118 822.173 242.964 821.663C241.832 821.13 240.933 820.42 240.268 819.533C239.602 818.623 239.247 817.613 239.203 816.504H243.13C243.197 817.281 243.563 817.935 244.228 818.468C244.916 818.978 245.771 819.233 246.791 819.233C247.856 819.233 248.677 819.034 249.254 818.634C249.853 818.213 250.153 817.68 250.153 817.037C250.153 816.349 249.82 815.838 249.154 815.506C248.511 815.173 247.479 814.807 246.059 814.407C244.683 814.03 243.563 813.664 242.697 813.309C241.832 812.954 241.078 812.41 240.434 811.678C239.813 810.946 239.502 809.98 239.502 808.782C239.502 807.806 239.791 806.918 240.368 806.12C240.944 805.299 241.765 804.655 242.831 804.189C243.918 803.723 245.16 803.49 246.558 803.49C248.644 803.49 250.319 804.023 251.584 805.088C252.871 806.131 253.559 807.562 253.648 809.381H249.853C249.787 808.56 249.454 807.906 248.855 807.418C248.256 806.929 247.446 806.685 246.425 806.685C245.427 806.685 244.661 806.874 244.129 807.251C243.596 807.628 243.33 808.128 243.33 808.749C243.33 809.237 243.507 809.648 243.862 809.98C244.217 810.313 244.65 810.58 245.16 810.779C245.671 810.957 246.425 811.19 247.424 811.478C248.755 811.833 249.842 812.199 250.686 812.577C251.551 812.932 252.294 813.464 252.916 814.174C253.537 814.884 253.859 815.827 253.881 817.003C253.881 818.046 253.592 818.978 253.015 819.799C252.438 820.62 251.617 821.264 250.552 821.73C249.509 822.196 248.278 822.429 246.858 822.429Z" fill="#FFD700"/>
<path d="M233.355 801.359C232.667 801.359 232.09 801.126 231.624 800.66C231.158 800.194 230.925 799.618 230.925 798.93C230.925 798.242 231.158 797.665 231.624 797.199C232.09 796.733 232.667 796.5 233.355 796.5C234.021 796.5 234.586 796.733 235.052 797.199C235.518 797.665 235.751 798.242 235.751 798.93C235.751 799.618 235.518 800.194 235.052 800.66C234.586 801.126 234.021 801.359 233.355 801.359ZM235.219 803.789V822.128H231.425V803.789H235.219Z" fill="#FFD700"/>
<path d="M226.443 797.499V822.129H222.648V797.499H226.443Z" fill="#FFD700"/>
<path d="M198.827 812.876C198.827 811.034 199.204 809.404 199.959 807.983C200.735 806.563 201.778 805.465 203.087 804.688C204.419 803.89 205.883 803.49 207.481 803.49C208.923 803.49 210.177 803.779 211.242 804.355C212.329 804.91 213.195 805.609 213.838 806.452V803.79H217.666V822.129H213.838V819.4C213.195 820.265 212.318 820.986 211.209 821.563C210.099 822.14 208.834 822.429 207.414 822.429C205.839 822.429 204.397 822.029 203.087 821.23C201.778 820.409 200.735 819.278 199.959 817.835C199.204 816.371 198.827 814.718 198.827 812.876ZM213.838 812.943C213.838 811.678 213.572 810.58 213.039 809.648C212.529 808.716 211.852 808.006 211.009 807.517C210.166 807.029 209.256 806.785 208.28 806.785C207.303 806.785 206.394 807.029 205.55 807.517C204.707 807.983 204.019 808.682 203.487 809.614C202.977 810.524 202.721 811.611 202.721 812.876C202.721 814.141 202.977 815.25 203.487 816.204C204.019 817.159 204.707 817.891 205.55 818.401C206.416 818.889 207.326 819.133 208.28 819.133C209.256 819.133 210.166 818.889 211.009 818.401C211.852 817.913 212.529 817.203 213.039 816.271C213.572 815.317 213.838 814.207 213.838 812.943Z" fill="#FFD700"/>
<path d="M192.133 806.884V817.036C192.133 817.724 192.288 818.223 192.599 818.534C192.932 818.822 193.487 818.966 194.263 818.966H196.593V822.128H193.598C191.889 822.128 190.58 821.729 189.67 820.93C188.76 820.131 188.306 818.833 188.306 817.036V806.884H186.142V803.789H188.306V799.229H192.133V803.789H196.593V806.884H192.133Z" fill="#FFD700"/>
<path d="M180.862 801.359C180.174 801.359 179.598 801.126 179.132 800.66C178.666 800.194 178.433 799.618 178.433 798.93C178.433 798.242 178.666 797.665 179.132 797.199C179.598 796.733 180.174 796.5 180.862 796.5C181.528 796.5 182.094 796.733 182.56 797.199C183.026 797.665 183.259 798.242 183.259 798.93C183.259 799.618 183.026 800.194 182.56 800.66C182.094 801.126 181.528 801.359 180.862 801.359ZM182.726 803.789V822.128H178.932V803.789H182.726Z" fill="#FFD700"/>
<path d="M163.763 803.49C165.183 803.49 166.436 803.779 167.524 804.355C168.633 804.91 169.499 805.609 170.12 806.452V803.79H173.947V822.429C173.947 824.115 173.592 825.613 172.882 826.922C172.172 828.253 171.141 829.296 169.787 830.051C168.456 830.805 166.858 831.182 164.994 831.182C162.509 831.182 160.445 830.594 158.803 829.418C157.161 828.264 156.229 826.689 156.008 824.692H159.769C160.057 825.646 160.667 826.411 161.599 826.988C162.553 827.588 163.685 827.887 164.994 827.887C166.525 827.887 167.757 827.421 168.689 826.489C169.643 825.557 170.12 824.204 170.12 822.429V819.366C169.476 820.232 168.6 820.964 167.49 821.563C166.403 822.14 165.161 822.429 163.763 822.429C162.165 822.429 160.701 822.029 159.369 821.23C158.06 820.409 157.017 819.278 156.241 817.835C155.486 816.371 155.109 814.718 155.109 812.876C155.109 811.034 155.486 809.404 156.241 807.983C157.017 806.563 158.06 805.465 159.369 804.688C160.701 803.89 162.165 803.49 163.763 803.49ZM170.12 812.943C170.12 811.678 169.854 810.58 169.321 809.648C168.811 808.716 168.134 808.006 167.291 807.517C166.448 807.029 165.538 806.785 164.561 806.785C163.585 806.785 162.675 807.029 161.832 807.517C160.989 807.983 160.301 808.682 159.769 809.614C159.258 810.524 159.003 811.611 159.003 812.876C159.003 814.141 159.258 815.25 159.769 816.204C160.301 817.159 160.989 817.891 161.832 818.401C162.698 818.889 163.607 819.133 164.561 819.133C165.538 819.133 166.448 818.889 167.291 818.401C168.134 817.913 168.811 817.203 169.321 816.271C169.854 815.317 170.12 814.207 170.12 812.943Z" fill="#FFD700"/>
<path d="M149.529 801.359C148.841 801.359 148.264 801.126 147.798 800.66C147.332 800.194 147.099 799.618 147.099 798.93C147.099 798.242 147.332 797.665 147.798 797.199C148.264 796.733 148.841 796.5 149.529 796.5C150.195 796.5 150.76 796.733 151.226 797.199C151.692 797.665 151.925 798.242 151.925 798.93C151.925 799.618 151.692 800.194 151.226 800.66C150.76 801.126 150.195 801.359 149.529 801.359ZM151.393 803.789V822.128H147.598V803.789H151.393Z" fill="#FFD700"/>
<path d="M131.555 798.997C134.018 798.997 136.171 799.474 138.012 800.428C139.876 801.36 141.308 802.713 142.306 804.489C143.327 806.241 143.837 808.294 143.837 810.646C143.837 812.998 143.327 815.039 142.306 816.77C141.308 818.501 139.876 819.832 138.012 820.764C136.171 821.674 134.018 822.129 131.555 822.129H124V798.997H131.555ZM131.555 819.033C134.262 819.033 136.337 818.301 137.779 816.837C139.222 815.372 139.943 813.309 139.943 810.646C139.943 807.961 139.222 805.864 137.779 804.355C136.337 802.847 134.262 802.092 131.555 802.092H127.794V819.033H131.555Z" fill="#FFD700"/>
</svg>
