<svg width="361" height="361" viewBox="0 0 361 361" fill="none" xmlns="http://www.w3.org/2000/svg">
<rect x="0.0065155" width="360" height="360" fill="white"/>
<g clip-path="url(#clip0)">
<circle cx="179.5" cy="179.5" r="142.5" fill="#1CB7AD"/>
<path d="M131.932 269.933C131.572 269.933 131.312 269.853 131.152 269.693C130.992 269.513 130.912 269.223 130.912 268.823V250.043C130.912 249.643 130.992 249.363 131.152 249.203C131.312 249.023 131.572 248.933 131.932 248.933H137.392C139.932 248.933 141.832 249.793 143.092 251.513C144.352 253.213 144.982 255.853 144.982 259.433C144.982 263.013 144.352 265.663 143.092 267.383C141.832 269.083 139.932 269.933 137.392 269.933H131.932ZM137.272 266.573C138.492 266.573 139.402 266.023 140.002 264.923C140.602 263.803 140.902 261.973 140.902 259.433C140.902 256.893 140.602 255.073 140.002 253.973C139.402 252.853 138.492 252.293 137.272 252.293H134.962V266.573H137.272ZM149.759 269.993C148.699 269.993 148.169 269.703 148.169 269.123V259.223C148.169 257.883 148.109 256.903 147.989 256.283C147.869 255.663 147.809 255.283 147.809 255.143C147.809 254.863 148.139 254.653 148.799 254.513C149.459 254.353 150.049 254.273 150.569 254.273C150.889 254.273 151.119 254.413 151.259 254.693C151.399 254.973 151.499 255.283 151.559 255.623C151.639 255.943 151.689 256.163 151.709 256.283C152.049 255.583 152.439 255.033 152.879 254.633C153.319 254.233 153.849 254.033 154.469 254.033C155.009 254.033 155.389 254.153 155.609 254.393C155.829 254.633 155.939 254.993 155.939 255.473C155.939 255.873 155.869 256.363 155.729 256.943C155.589 257.523 155.419 257.813 155.219 257.813C155.099 257.813 154.889 257.773 154.589 257.693C154.309 257.593 154.039 257.543 153.779 257.543C153.359 257.543 152.979 257.713 152.639 258.053C152.299 258.393 152.069 258.763 151.949 259.163V269.123C151.949 269.703 151.409 269.993 150.329 269.993H149.759ZM166.758 269.993C165.738 269.993 165.228 269.703 165.228 269.123V252.293H161.568C161.288 252.293 161.088 252.193 160.968 251.993C160.848 251.773 160.788 251.443 160.788 251.003V250.223C160.788 249.783 160.848 249.463 160.968 249.263C161.088 249.043 161.288 248.933 161.568 248.933H172.908C173.188 248.933 173.388 249.033 173.508 249.233C173.648 249.433 173.718 249.763 173.718 250.223V251.003C173.718 251.463 173.648 251.793 173.508 251.993C173.388 252.193 173.188 252.293 172.908 252.293H169.248V269.123C169.248 269.703 168.738 269.993 167.718 269.993H166.758ZM175.804 269.993C174.744 269.993 174.214 269.703 174.214 269.123V259.223C174.214 257.883 174.154 256.903 174.034 256.283C173.914 255.663 173.854 255.283 173.854 255.143C173.854 254.863 174.184 254.653 174.844 254.513C175.504 254.353 176.094 254.273 176.614 254.273C176.934 254.273 177.164 254.413 177.304 254.693C177.444 254.973 177.544 255.283 177.604 255.623C177.684 255.943 177.734 256.163 177.754 256.283C178.094 255.583 178.484 255.033 178.924 254.633C179.364 254.233 179.894 254.033 180.514 254.033C181.054 254.033 181.434 254.153 181.654 254.393C181.874 254.633 181.984 254.993 181.984 255.473C181.984 255.873 181.914 256.363 181.774 256.943C181.634 257.523 181.464 257.813 181.264 257.813C181.144 257.813 180.934 257.773 180.634 257.693C180.354 257.593 180.084 257.543 179.824 257.543C179.404 257.543 179.024 257.713 178.684 258.053C178.344 258.393 178.114 258.763 177.994 259.163V269.123C177.994 269.703 177.454 269.993 176.374 269.993H175.804ZM187.275 270.143C185.935 270.143 184.895 269.733 184.155 268.913C183.435 268.073 183.075 266.923 183.075 265.463C183.075 263.763 183.665 262.413 184.845 261.413C186.045 260.413 187.905 259.913 190.425 259.913V259.103C190.425 257.743 189.725 257.063 188.325 257.063C187.785 257.063 187.315 257.133 186.915 257.273C186.515 257.393 186.085 257.563 185.625 257.783C185.365 257.943 185.175 258.023 185.055 258.023C184.795 258.023 184.495 257.753 184.155 257.213C183.835 256.653 183.675 256.223 183.675 255.923C183.675 255.603 183.905 255.303 184.365 255.023C184.845 254.723 185.465 254.483 186.225 254.303C186.985 254.123 187.765 254.033 188.565 254.033C190.485 254.033 191.905 254.473 192.825 255.353C193.745 256.233 194.205 257.443 194.205 258.983V264.953C194.205 266.313 194.265 267.313 194.385 267.953C194.505 268.573 194.565 268.953 194.565 269.093C194.565 269.373 194.235 269.593 193.575 269.753C192.915 269.893 192.325 269.963 191.805 269.963C191.505 269.963 191.285 269.833 191.145 269.573C191.005 269.313 190.865 268.903 190.725 268.343C190.385 268.843 189.915 269.273 189.315 269.633C188.735 269.973 188.055 270.143 187.275 270.143ZM188.325 267.233C188.745 267.233 189.135 267.123 189.495 266.903C189.875 266.683 190.185 266.383 190.425 266.003V262.373C187.865 262.373 186.585 263.323 186.585 265.223C186.585 265.863 186.725 266.363 187.005 266.723C187.305 267.063 187.745 267.233 188.325 267.233ZM201.629 269.993C200.809 269.993 200.349 269.803 200.249 269.423L196.619 255.293C196.579 255.053 196.559 254.883 196.559 254.783C196.559 254.383 197.039 254.183 197.999 254.183H198.989C199.849 254.183 200.319 254.373 200.399 254.753L201.749 261.863C201.969 262.963 202.189 264.443 202.409 266.303H202.559C202.719 264.683 202.939 263.173 203.219 261.773L204.509 254.753C204.589 254.373 205.069 254.183 205.949 254.183H206.849C207.769 254.183 208.229 254.383 208.229 254.783C208.229 254.983 208.209 255.153 208.169 255.293L204.569 269.423C204.469 269.803 204.009 269.993 203.189 269.993H201.629ZM216.069 270.143C213.809 270.143 212.139 269.483 211.059 268.163C209.999 266.823 209.469 264.833 209.469 262.193C209.469 256.753 211.509 254.033 215.589 254.033C219.229 254.033 221.049 256.693 221.049 262.013C221.049 262.233 220.869 262.553 220.509 262.973C220.169 263.393 219.899 263.603 219.699 263.603H213.399C213.459 264.843 213.719 265.743 214.179 266.303C214.639 266.843 215.309 267.113 216.189 267.113C216.709 267.113 217.169 267.043 217.569 266.903C217.969 266.743 218.339 266.573 218.679 266.393C219.019 266.193 219.219 266.093 219.279 266.093C219.539 266.093 219.829 266.363 220.149 266.903C220.489 267.423 220.659 267.823 220.659 268.103C220.659 268.483 220.409 268.833 219.909 269.153C219.429 269.453 218.819 269.693 218.079 269.873C217.359 270.053 216.689 270.143 216.069 270.143ZM217.479 261.113C217.479 259.653 217.319 258.583 216.999 257.903C216.699 257.223 216.209 256.883 215.529 256.883C214.829 256.883 214.299 257.213 213.939 257.873C213.579 258.513 213.359 259.593 213.279 261.113H217.479ZM227.322 270.143C226.222 270.143 225.342 269.803 224.682 269.123C224.022 268.443 223.692 267.373 223.692 265.913V248.183C223.692 247.623 224.222 247.343 225.282 247.343H225.882C226.942 247.343 227.472 247.623 227.472 248.183V265.883C227.472 266.323 227.542 266.643 227.682 266.843C227.822 267.023 228.032 267.113 228.312 267.113C228.452 267.113 228.592 267.093 228.732 267.053C228.892 267.013 229.012 266.993 229.092 266.993C229.312 266.993 229.492 267.233 229.632 267.713C229.792 268.173 229.872 268.573 229.872 268.913C229.872 269.333 229.602 269.643 229.062 269.843C228.542 270.043 227.962 270.143 227.322 270.143Z" fill="white"/>
<path d="M178.903 82C148.804 82 124.319 107.552 124.319 138.957C124.319 180.976 174.68 230.918 176.824 233.025C177.41 233.597 178.156 233.884 178.903 233.884C179.649 233.884 180.395 233.597 180.982 233.025C183.125 230.918 233.486 180.976 233.486 138.957C233.486 107.552 209.002 82 178.903 82ZM178.903 170.599C162.183 170.599 148.578 156.403 148.578 138.957C148.578 121.51 162.183 107.314 178.903 107.314C195.622 107.314 209.227 121.51 209.227 138.957C209.227 156.403 195.622 170.599 178.903 170.599Z" fill="white"/>
<g clip-path="url(#clip1)" filter="url(#filter0_d)">
<g filter="url(#filter1_d)">
<path d="M167.256 126.746V135.193C167.256 135.53 167.53 135.804 167.867 135.804H176.315C176.652 135.804 176.925 135.53 176.925 135.193V133.591C176.925 133.254 176.652 132.98 176.315 132.98C175.977 132.98 175.704 133.254 175.704 133.591V134.582H168.478V127.356H175.704V128.827C175.704 129.164 175.977 129.438 176.315 129.438C176.652 129.438 176.925 129.164 176.925 128.827V126.746C176.925 126.408 176.652 126.135 176.315 126.135H167.867C167.53 126.135 167.256 126.408 167.256 126.746V126.746Z" fill="white"/>
</g>
<path d="M170.824 129.091C170.486 129.091 170.213 129.365 170.213 129.702V132.236C170.213 132.574 170.486 132.847 170.824 132.847H173.358C173.695 132.847 173.969 132.574 173.969 132.236V129.702C173.969 129.365 173.695 129.091 173.358 129.091H170.824ZM172.747 131.626H171.435V130.313H172.747V131.626Z" fill="white"/>
<g filter="url(#filter2_d)">
<path d="M176.315 140.166H167.867C167.53 140.166 167.256 140.439 167.256 140.776V149.224C167.256 149.561 167.53 149.834 167.867 149.834H176.315C176.652 149.834 176.925 149.561 176.925 149.224V140.776C176.925 140.439 176.652 140.166 176.315 140.166V140.166ZM175.704 148.613H168.478V141.387H175.704V148.613Z" fill="white"/>
</g>
<g filter="url(#filter3_d)">
<path d="M181.94 135.804H190.388C190.725 135.804 190.998 135.53 190.998 135.193V126.746C190.998 126.408 190.725 126.135 190.388 126.135H181.94C181.603 126.135 181.33 126.408 181.33 126.746V135.193C181.33 135.53 181.603 135.804 181.94 135.804V135.804ZM182.551 127.356H189.777V134.582H182.551V127.356Z" fill="white"/>
</g>
<g filter="url(#filter4_d)">
<path d="M190.998 149.224V140.776C190.998 140.439 190.725 140.166 190.388 140.166H181.94C181.603 140.166 181.33 140.439 181.33 140.776V149.224C181.33 149.561 181.603 149.834 181.94 149.834H190.388C190.725 149.834 190.998 149.561 190.998 149.224ZM189.777 148.613H182.551V141.387H189.777V148.613Z" fill="white"/>
</g>
<path d="M190.388 138.632C190.725 138.632 190.998 138.359 190.998 138.021C190.998 137.684 190.725 137.411 190.388 137.411H179.679V126.678C179.679 126.341 179.406 126.067 179.069 126.067C178.731 126.067 178.457 126.341 178.457 126.678V137.411H170.351C170.014 137.411 169.74 137.684 169.74 138.021C169.74 138.359 170.014 138.632 170.351 138.632H178.457V149.224C178.457 149.561 178.731 149.834 179.069 149.834C179.406 149.834 179.679 149.561 179.679 149.224V138.632H190.388Z" fill="white"/>
<path d="M170.824 146.923H173.358C173.695 146.923 173.969 146.65 173.969 146.312V143.778C173.969 143.441 173.695 143.168 173.358 143.168H170.824C170.486 143.168 170.213 143.441 170.213 143.778V146.312C170.213 146.65 170.486 146.923 170.824 146.923V146.923ZM171.435 144.389H172.747V145.702H171.435V144.389Z" fill="white"/>
<path d="M187.431 129.091H184.897C184.56 129.091 184.286 129.365 184.286 129.702V132.236C184.286 132.574 184.56 132.847 184.897 132.847H187.431C187.768 132.847 188.042 132.574 188.042 132.236V129.702C188.042 129.365 187.768 129.091 187.431 129.091ZM186.82 131.626H185.508V130.313H186.82V131.626Z" fill="white"/>
<path d="M184.897 146.923H187.431C187.768 146.923 188.042 146.65 188.042 146.312V143.778C188.042 143.441 187.768 143.168 187.431 143.168H184.897C184.56 143.168 184.286 143.441 184.286 143.778V146.312C184.286 146.65 184.56 146.923 184.897 146.923V146.923ZM185.508 144.389H186.82V145.702H185.508V144.389Z" fill="white"/>
<path d="M167.744 137.413L167.711 137.421C167.382 137.498 167.179 137.827 167.256 138.156C167.323 138.437 167.574 138.627 167.85 138.627C167.897 138.627 167.944 138.621 167.991 138.61L168.024 138.602C168.352 138.525 168.556 138.196 168.478 137.868C168.401 137.539 168.072 137.336 167.744 137.413Z" fill="white"/>
<path d="M176.191 130.599L176.159 130.607C175.83 130.684 175.627 131.013 175.704 131.341C175.769 131.623 176.02 131.813 176.298 131.813C176.344 131.813 176.391 131.808 176.438 131.796L176.47 131.789C176.799 131.712 177.003 131.383 176.926 131.055C176.849 130.726 176.52 130.522 176.191 130.599Z" fill="white"/>
<path d="M164.105 127.452C164.443 127.452 164.716 127.179 164.716 126.842V123.671H167.772C168.109 123.671 168.383 123.398 168.383 123.06C168.383 122.723 168.109 122.449 167.772 122.449H164.105C163.768 122.449 163.495 122.723 163.495 123.06V126.842C163.495 127.179 163.768 127.452 164.105 127.452Z" fill="white"/>
<path d="M194.032 122.449H190.366C190.029 122.449 189.755 122.723 189.755 123.06C189.755 123.398 190.029 123.671 190.366 123.671H193.421V126.842C193.421 127.179 193.695 127.452 194.032 127.452C194.369 127.452 194.643 127.179 194.643 126.842V123.06C194.643 122.723 194.369 122.449 194.032 122.449V122.449Z" fill="white"/>
<path d="M167.772 152.35H164.716V149.179C164.716 148.842 164.443 148.569 164.105 148.569C163.768 148.569 163.495 148.842 163.495 149.179V152.961C163.495 153.298 163.768 153.572 164.105 153.572H167.772C168.109 153.572 168.383 153.298 168.383 152.961C168.383 152.623 168.109 152.35 167.772 152.35V152.35Z" fill="white"/>
<path d="M194.032 148.569C193.695 148.569 193.421 148.842 193.421 149.179V152.35H190.366C190.029 152.35 189.755 152.623 189.755 152.961C189.755 153.298 190.029 153.572 190.366 153.572H194.032C194.369 153.572 194.643 153.298 194.643 152.961V149.179C194.643 148.842 194.369 148.569 194.032 148.569V148.569Z" fill="white"/>
</g>
</g>
<defs>
<filter id="filter0_d" x="112.473" y="121.395" width="133.225" height="133.225" filterUnits="userSpaceOnUse" color-interpolation-filters="sRGB">
<feFlood flood-opacity="0" result="BackgroundImageFix"/>
<feColorMatrix in="SourceAlpha" type="matrix" values="0 0 0 0 0 0 0 0 0 0 0 0 0 0 0 0 0 0 127 0" result="hardAlpha"/>
<feOffset dy="50"/>
<feGaussianBlur stdDeviation="25"/>
<feColorMatrix type="matrix" values="0 0 0 0 0 0 0 0 0 0 0 0 0 0 0 0 0 0 0.5 0"/>
<feBlend mode="normal" in2="BackgroundImageFix" result="effect1_dropShadow"/>
<feBlend mode="normal" in="SourceGraphic" in2="effect1_dropShadow" result="shape"/>
</filter>
<filter id="filter1_d" x="167.256" y="126.135" width="109.669" height="109.669" filterUnits="userSpaceOnUse" color-interpolation-filters="sRGB">
<feFlood flood-opacity="0" result="BackgroundImageFix"/>
<feColorMatrix in="SourceAlpha" type="matrix" values="0 0 0 0 0 0 0 0 0 0 0 0 0 0 0 0 0 0 127 0" result="hardAlpha"/>
<feOffset dx="50" dy="50"/>
<feGaussianBlur stdDeviation="25"/>
<feColorMatrix type="matrix" values="0 0 0 0 0 0 0 0 0 0 0 0 0 0 0 0 0 0 0.25 0"/>
<feBlend mode="normal" in2="BackgroundImageFix" result="effect1_dropShadow"/>
<feBlend mode="normal" in="SourceGraphic" in2="effect1_dropShadow" result="shape"/>
</filter>
<filter id="filter2_d" x="167.256" y="140.166" width="109.669" height="109.669" filterUnits="userSpaceOnUse" color-interpolation-filters="sRGB">
<feFlood flood-opacity="0" result="BackgroundImageFix"/>
<feColorMatrix in="SourceAlpha" type="matrix" values="0 0 0 0 0 0 0 0 0 0 0 0 0 0 0 0 0 0 127 0" result="hardAlpha"/>
<feOffset dx="50" dy="50"/>
<feGaussianBlur stdDeviation="25"/>
<feColorMatrix type="matrix" values="0 0 0 0 0 0 0 0 0 0 0 0 0 0 0 0 0 0 0.25 0"/>
<feBlend mode="normal" in2="BackgroundImageFix" result="effect1_dropShadow"/>
<feBlend mode="normal" in="SourceGraphic" in2="effect1_dropShadow" result="shape"/>
</filter>
<filter id="filter3_d" x="181.33" y="126.135" width="109.669" height="109.669" filterUnits="userSpaceOnUse" color-interpolation-filters="sRGB">
<feFlood flood-opacity="0" result="BackgroundImageFix"/>
<feColorMatrix in="SourceAlpha" type="matrix" values="0 0 0 0 0 0 0 0 0 0 0 0 0 0 0 0 0 0 127 0" result="hardAlpha"/>
<feOffset dx="50" dy="50"/>
<feGaussianBlur stdDeviation="25"/>
<feColorMatrix type="matrix" values="0 0 0 0 0 0 0 0 0 0 0 0 0 0 0 0 0 0 0.25 0"/>
<feBlend mode="normal" in2="BackgroundImageFix" result="effect1_dropShadow"/>
<feBlend mode="normal" in="SourceGraphic" in2="effect1_dropShadow" result="shape"/>
</filter>
<filter id="filter4_d" x="181.33" y="140.166" width="109.669" height="109.669" filterUnits="userSpaceOnUse" color-interpolation-filters="sRGB">
<feFlood flood-opacity="0" result="BackgroundImageFix"/>
<feColorMatrix in="SourceAlpha" type="matrix" values="0 0 0 0 0 0 0 0 0 0 0 0 0 0 0 0 0 0 127 0" result="hardAlpha"/>
<feOffset dx="50" dy="50"/>
<feGaussianBlur stdDeviation="25"/>
<feColorMatrix type="matrix" values="0 0 0 0 0 0 0 0 0 0 0 0 0 0 0 0 0 0 0.25 0"/>
<feBlend mode="normal" in2="BackgroundImageFix" result="effect1_dropShadow"/>
<feBlend mode="normal" in="SourceGraphic" in2="effect1_dropShadow" result="shape"/>
</filter>
<clipPath id="clip0">
<rect width="286" height="286" fill="white" transform="translate(37 37)"/>
</clipPath>
<clipPath id="clip1">
<rect width="33.2247" height="33.2247" fill="white" transform="translate(162.473 121.395)"/>
</clipPath>
</defs>
</svg>
