<svg width="361" height="361" viewBox="0 0 361 361" fill="none" xmlns="http://www.w3.org/2000/svg">
<rect x="0.00646973" width="360" height="360" fill="#1CB7AD"/>
<path d="M117.076 284C116.596 284 116.25 283.893 116.036 283.68C115.823 283.44 115.716 283.053 115.716 282.52V257.48C115.716 256.947 115.823 256.573 116.036 256.36C116.25 256.12 116.596 256 117.076 256H124.356C127.743 256 130.276 257.147 131.956 259.44C133.636 261.707 134.476 265.227 134.476 270C134.476 274.773 133.636 278.307 131.956 280.6C130.276 282.867 127.743 284 124.356 284H117.076ZM124.196 279.52C125.823 279.52 127.036 278.787 127.836 277.32C128.636 275.827 129.036 273.387 129.036 270C129.036 266.613 128.636 264.187 127.836 262.72C127.036 261.227 125.823 260.48 124.196 260.48H121.116V279.52H124.196ZM140.845 284.08C139.432 284.08 138.725 283.693 138.725 282.92V269.72C138.725 267.933 138.645 266.627 138.485 265.8C138.325 264.973 138.245 264.467 138.245 264.28C138.245 263.907 138.685 263.627 139.565 263.44C140.445 263.227 141.232 263.12 141.925 263.12C142.352 263.12 142.658 263.307 142.845 263.68C143.032 264.053 143.165 264.467 143.245 264.92C143.352 265.347 143.418 265.64 143.445 265.8C143.898 264.867 144.418 264.133 145.005 263.6C145.592 263.067 146.298 262.8 147.125 262.8C147.845 262.8 148.352 262.96 148.645 263.28C148.938 263.6 149.085 264.08 149.085 264.72C149.085 265.253 148.992 265.907 148.805 266.68C148.618 267.453 148.392 267.84 148.125 267.84C147.965 267.84 147.685 267.787 147.285 267.68C146.912 267.547 146.552 267.48 146.205 267.48C145.645 267.48 145.138 267.707 144.685 268.16C144.232 268.613 143.925 269.107 143.765 269.64V282.92C143.765 283.693 143.045 284.08 141.605 284.08H140.845ZM163.51 284.08C162.15 284.08 161.47 283.693 161.47 282.92V260.48H156.59C156.217 260.48 155.95 260.347 155.79 260.08C155.63 259.787 155.55 259.347 155.55 258.76V257.72C155.55 257.133 155.63 256.707 155.79 256.44C155.95 256.147 156.217 256 156.59 256H171.71C172.084 256 172.35 256.133 172.51 256.4C172.697 256.667 172.79 257.107 172.79 257.72V258.76C172.79 259.373 172.697 259.813 172.51 260.08C172.35 260.347 172.084 260.48 171.71 260.48H166.83V282.92C166.83 283.693 166.15 284.08 164.79 284.08H163.51ZM175.572 284.08C174.158 284.08 173.452 283.693 173.452 282.92V269.72C173.452 267.933 173.372 266.627 173.212 265.8C173.052 264.973 172.972 264.467 172.972 264.28C172.972 263.907 173.412 263.627 174.292 263.44C175.172 263.227 175.958 263.12 176.652 263.12C177.078 263.12 177.385 263.307 177.572 263.68C177.758 264.053 177.892 264.467 177.972 264.92C178.078 265.347 178.145 265.64 178.172 265.8C178.625 264.867 179.145 264.133 179.732 263.6C180.318 263.067 181.025 262.8 181.852 262.8C182.572 262.8 183.078 262.96 183.372 263.28C183.665 263.6 183.812 264.08 183.812 264.72C183.812 265.253 183.718 265.907 183.532 266.68C183.345 267.453 183.118 267.84 182.852 267.84C182.692 267.84 182.412 267.787 182.012 267.68C181.638 267.547 181.278 267.48 180.932 267.48C180.372 267.48 179.865 267.707 179.412 268.16C178.958 268.613 178.652 269.107 178.492 269.64V282.92C178.492 283.693 177.772 284.08 176.332 284.08H175.572ZM190.867 284.28C189.08 284.28 187.694 283.733 186.707 282.64C185.747 281.52 185.267 279.987 185.267 278.04C185.267 275.773 186.054 273.973 187.627 272.64C189.227 271.307 191.707 270.64 195.067 270.64V269.56C195.067 267.747 194.134 266.84 192.267 266.84C191.547 266.84 190.92 266.933 190.387 267.12C189.854 267.28 189.28 267.507 188.667 267.8C188.32 268.013 188.067 268.12 187.907 268.12C187.56 268.12 187.16 267.76 186.707 267.04C186.28 266.293 186.067 265.72 186.067 265.32C186.067 264.893 186.374 264.493 186.987 264.12C187.627 263.72 188.454 263.4 189.467 263.16C190.48 262.92 191.52 262.8 192.587 262.8C195.147 262.8 197.04 263.387 198.267 264.56C199.494 265.733 200.107 267.347 200.107 269.4V277.36C200.107 279.173 200.187 280.507 200.347 281.36C200.507 282.187 200.587 282.693 200.587 282.88C200.587 283.253 200.147 283.547 199.267 283.76C198.387 283.947 197.6 284.04 196.907 284.04C196.507 284.04 196.214 283.867 196.027 283.52C195.84 283.173 195.654 282.627 195.467 281.88C195.014 282.547 194.387 283.12 193.587 283.6C192.814 284.053 191.907 284.28 190.867 284.28ZM192.267 280.4C192.827 280.4 193.347 280.253 193.827 279.96C194.334 279.667 194.747 279.267 195.067 278.76V273.92C191.654 273.92 189.947 275.187 189.947 277.72C189.947 278.573 190.134 279.24 190.507 279.72C190.907 280.173 191.494 280.4 192.267 280.4ZM210.005 284.08C208.911 284.08 208.298 283.827 208.165 283.32L203.325 264.48C203.271 264.16 203.245 263.933 203.245 263.8C203.245 263.267 203.885 263 205.165 263H206.485C207.631 263 208.258 263.253 208.365 263.76L210.165 273.24C210.458 274.707 210.751 276.68 211.045 279.16H211.245C211.458 277 211.751 274.987 212.125 273.12L213.845 263.76C213.951 263.253 214.591 263 215.765 263H216.965C218.191 263 218.805 263.267 218.805 263.8C218.805 264.067 218.778 264.293 218.725 264.48L213.925 283.32C213.791 283.827 213.178 284.08 212.085 284.08H210.005ZM229.258 284.28C226.245 284.28 224.018 283.4 222.578 281.64C221.165 279.853 220.458 277.2 220.458 273.68C220.458 266.427 223.178 262.8 228.618 262.8C233.472 262.8 235.898 266.347 235.898 273.44C235.898 273.733 235.658 274.16 235.178 274.72C234.725 275.28 234.365 275.56 234.098 275.56H225.698C225.778 277.213 226.125 278.413 226.738 279.16C227.352 279.88 228.245 280.24 229.418 280.24C230.112 280.24 230.725 280.147 231.258 279.96C231.792 279.747 232.285 279.52 232.738 279.28C233.192 279.013 233.458 278.88 233.538 278.88C233.885 278.88 234.272 279.24 234.698 279.96C235.152 280.653 235.378 281.187 235.378 281.56C235.378 282.067 235.045 282.533 234.378 282.96C233.738 283.36 232.925 283.68 231.938 283.92C230.978 284.16 230.085 284.28 229.258 284.28ZM231.138 272.24C231.138 270.293 230.925 268.867 230.498 267.96C230.098 267.053 229.445 266.6 228.538 266.6C227.605 266.6 226.898 267.04 226.418 267.92C225.938 268.773 225.645 270.213 225.538 272.24H231.138ZM244.263 284.28C242.796 284.28 241.623 283.827 240.743 282.92C239.863 282.013 239.423 280.587 239.423 278.64V255C239.423 254.253 240.129 253.88 241.543 253.88H242.342C243.756 253.88 244.463 254.253 244.463 255V278.6C244.463 279.187 244.556 279.613 244.743 279.88C244.929 280.12 245.209 280.24 245.583 280.24C245.769 280.24 245.956 280.213 246.143 280.16C246.356 280.107 246.516 280.08 246.623 280.08C246.916 280.08 247.156 280.4 247.342 281.04C247.556 281.653 247.663 282.187 247.663 282.64C247.663 283.2 247.303 283.613 246.583 283.88C245.889 284.147 245.116 284.28 244.263 284.28Z" fill="white"/>
<rect x="271.051" y="290.043" width="0.558594" height="1.11719"/>
<path d="M179.78 55.876C143.507 55.876 114 86.6692 114 124.516C114 175.154 174.691 235.341 177.275 237.881C177.981 238.57 178.881 238.916 179.78 238.916C180.679 238.916 181.579 238.57 182.285 237.881C184.869 235.341 245.56 175.154 245.56 124.516C245.56 86.6692 216.053 55.876 179.78 55.876ZM179.78 162.649C159.63 162.649 143.235 145.542 143.235 124.516C143.235 103.49 159.631 86.3825 179.78 86.3825C199.929 86.3825 216.325 103.491 216.325 124.516C216.325 145.541 199.93 162.649 179.78 162.649Z" fill="white"/>
<g clip-path="url(#clip0)" filter="url(#filter0_d)">
<g filter="url(#filter1_d)">
<path d="M165.745 109.8V119.98C165.745 120.387 166.075 120.716 166.481 120.716H176.661C177.068 120.716 177.397 120.387 177.397 119.98V118.05C177.397 117.643 177.068 117.314 176.661 117.314C176.255 117.314 175.925 117.643 175.925 118.05V119.244H167.217V110.536H175.925V112.308C175.925 112.715 176.255 113.045 176.661 113.045C177.068 113.045 177.397 112.715 177.397 112.308V109.8C177.397 109.393 177.068 109.064 176.661 109.064H166.481C166.075 109.064 165.745 109.393 165.745 109.8V109.8Z" fill="white"/>
</g>
<path d="M170.044 112.627C169.637 112.627 169.308 112.957 169.308 113.363V116.417C169.308 116.824 169.637 117.153 170.044 117.153H173.098C173.505 117.153 173.834 116.824 173.834 116.417V113.363C173.834 112.957 173.505 112.627 173.098 112.627H170.044ZM172.362 115.681H170.78V114.099H172.362V115.681Z" fill="white"/>
<g filter="url(#filter2_d)">
<path d="M176.661 125.973H166.481C166.075 125.973 165.745 126.302 165.745 126.709V136.889C165.745 137.296 166.075 137.625 166.481 137.625H176.661C177.068 137.625 177.397 137.296 177.397 136.889V126.709C177.397 126.302 177.068 125.973 176.661 125.973V125.973ZM175.925 136.153H167.217V127.445H175.925V136.153Z" fill="white"/>
</g>
<g filter="url(#filter3_d)">
<path d="M183.441 120.716H193.621C194.027 120.716 194.357 120.387 194.357 119.98V109.8C194.357 109.393 194.027 109.064 193.621 109.064H183.441C183.035 109.064 182.705 109.393 182.705 109.8V119.98C182.705 120.387 183.035 120.716 183.441 120.716V120.716ZM184.177 110.536H192.885V119.244H184.177V110.536Z" fill="white"/>
</g>
<g filter="url(#filter4_d)">
<path d="M194.357 136.889V126.709C194.357 126.302 194.027 125.973 193.621 125.973H183.441C183.035 125.973 182.705 126.302 182.705 126.709V136.889C182.705 137.296 183.035 137.625 183.441 137.625H193.621C194.027 137.625 194.357 137.296 194.357 136.889ZM192.885 136.153H184.177V127.445H192.885V136.153Z" fill="white"/>
</g>
<path d="M193.621 124.125C194.027 124.125 194.357 123.795 194.357 123.389C194.357 122.982 194.027 122.653 193.621 122.653H180.716V109.719C180.716 109.312 180.386 108.982 179.98 108.982C179.573 108.982 179.244 109.312 179.244 109.719V122.653H169.474C169.068 122.653 168.738 122.982 168.738 123.389C168.738 123.796 169.068 124.125 169.474 124.125H179.244V136.889C179.244 137.295 179.573 137.625 179.98 137.625C180.386 137.625 180.716 137.295 180.716 136.889V124.125H193.621Z" fill="white"/>
<path d="M170.044 134.117H173.098C173.505 134.117 173.834 133.787 173.834 133.381V130.327C173.834 129.92 173.505 129.591 173.098 129.591H170.044C169.637 129.591 169.308 129.92 169.308 130.327V133.381C169.308 133.787 169.637 134.117 170.044 134.117V134.117ZM170.78 131.063H172.362V132.645H170.78V131.063Z" fill="white"/>
<path d="M190.058 112.627H187.004C186.597 112.627 186.268 112.957 186.268 113.363V116.417C186.268 116.824 186.597 117.153 187.004 117.153H190.058C190.465 117.153 190.794 116.824 190.794 116.417V113.363C190.794 112.957 190.465 112.627 190.058 112.627ZM189.322 115.681H187.74V114.099H189.322V115.681Z" fill="white"/>
<path d="M187.004 134.117H190.058C190.465 134.117 190.794 133.787 190.794 133.381V130.327C190.794 129.92 190.465 129.591 190.058 129.591H187.004C186.597 129.591 186.268 129.92 186.268 130.327V133.381C186.268 133.787 186.597 134.117 187.004 134.117V134.117ZM187.74 131.063H189.322V132.645H187.74V131.063Z" fill="white"/>
<path d="M166.332 122.656L166.292 122.665C165.897 122.759 165.652 123.155 165.745 123.551C165.825 123.89 166.127 124.118 166.461 124.118C166.517 124.118 166.573 124.112 166.63 124.098L166.67 124.089C167.065 123.996 167.311 123.599 167.217 123.204C167.124 122.808 166.728 122.563 166.332 122.656Z" fill="white"/>
<path d="M176.513 114.445L176.473 114.454C176.077 114.547 175.832 114.943 175.925 115.339C176.004 115.678 176.307 115.907 176.641 115.907C176.696 115.907 176.753 115.901 176.809 115.887L176.849 115.878C177.245 115.785 177.49 115.389 177.397 114.993C177.305 114.598 176.908 114.352 176.513 114.445Z" fill="white"/>
<path d="M161.948 110.652C162.354 110.652 162.684 110.322 162.684 109.916V106.095H166.366C166.772 106.095 167.102 105.766 167.102 105.359C167.102 104.952 166.772 104.623 166.366 104.623H161.948C161.541 104.623 161.212 104.952 161.212 105.359V109.916C161.212 110.322 161.541 110.652 161.948 110.652Z" fill="white"/>
<path d="M198.013 104.623H193.595C193.188 104.623 192.859 104.952 192.859 105.359C192.859 105.766 193.188 106.095 193.595 106.095H197.277V109.916C197.277 110.322 197.606 110.652 198.013 110.652C198.42 110.652 198.749 110.322 198.749 109.916V105.359C198.749 104.952 198.42 104.623 198.013 104.623V104.623Z" fill="white"/>
<path d="M166.366 140.657H162.684V136.836C162.684 136.43 162.354 136.1 161.948 136.1C161.541 136.1 161.212 136.43 161.212 136.836V141.393C161.212 141.799 161.541 142.129 161.948 142.129H166.366C166.772 142.129 167.102 141.799 167.102 141.393C167.102 140.986 166.772 140.657 166.366 140.657V140.657Z" fill="white"/>
<path d="M198.013 136.1C197.606 136.1 197.277 136.43 197.277 136.836V140.657H193.595C193.188 140.657 192.859 140.986 192.859 141.393C192.859 141.799 193.188 142.129 193.595 142.129H198.013C198.42 142.129 198.749 141.799 198.749 141.393V136.836C198.749 136.43 198.42 136.1 198.013 136.1V136.1Z" fill="white"/>
</g>
<defs>
<filter id="filter0_d" x="109.98" y="103.352" width="140.04" height="140.04" filterUnits="userSpaceOnUse" color-interpolation-filters="sRGB">
<feFlood flood-opacity="0" result="BackgroundImageFix"/>
<feColorMatrix in="SourceAlpha" type="matrix" values="0 0 0 0 0 0 0 0 0 0 0 0 0 0 0 0 0 0 127 0" result="hardAlpha"/>
<feOffset dy="50"/>
<feGaussianBlur stdDeviation="25"/>
<feColorMatrix type="matrix" values="0 0 0 0 0 0 0 0 0 0 0 0 0 0 0 0 0 0 0.5 0"/>
<feBlend mode="normal" in2="BackgroundImageFix" result="effect1_dropShadow"/>
<feBlend mode="normal" in="SourceGraphic" in2="effect1_dropShadow" result="shape"/>
</filter>
<filter id="filter1_d" x="165.745" y="109.064" width="111.652" height="111.652" filterUnits="userSpaceOnUse" color-interpolation-filters="sRGB">
<feFlood flood-opacity="0" result="BackgroundImageFix"/>
<feColorMatrix in="SourceAlpha" type="matrix" values="0 0 0 0 0 0 0 0 0 0 0 0 0 0 0 0 0 0 127 0" result="hardAlpha"/>
<feOffset dx="50" dy="50"/>
<feGaussianBlur stdDeviation="25"/>
<feColorMatrix type="matrix" values="0 0 0 0 0 0 0 0 0 0 0 0 0 0 0 0 0 0 0.25 0"/>
<feBlend mode="normal" in2="BackgroundImageFix" result="effect1_dropShadow"/>
<feBlend mode="normal" in="SourceGraphic" in2="effect1_dropShadow" result="shape"/>
</filter>
<filter id="filter2_d" x="165.745" y="125.973" width="111.652" height="111.652" filterUnits="userSpaceOnUse" color-interpolation-filters="sRGB">
<feFlood flood-opacity="0" result="BackgroundImageFix"/>
<feColorMatrix in="SourceAlpha" type="matrix" values="0 0 0 0 0 0 0 0 0 0 0 0 0 0 0 0 0 0 127 0" result="hardAlpha"/>
<feOffset dx="50" dy="50"/>
<feGaussianBlur stdDeviation="25"/>
<feColorMatrix type="matrix" values="0 0 0 0 0 0 0 0 0 0 0 0 0 0 0 0 0 0 0.25 0"/>
<feBlend mode="normal" in2="BackgroundImageFix" result="effect1_dropShadow"/>
<feBlend mode="normal" in="SourceGraphic" in2="effect1_dropShadow" result="shape"/>
</filter>
<filter id="filter3_d" x="182.705" y="109.064" width="111.652" height="111.652" filterUnits="userSpaceOnUse" color-interpolation-filters="sRGB">
<feFlood flood-opacity="0" result="BackgroundImageFix"/>
<feColorMatrix in="SourceAlpha" type="matrix" values="0 0 0 0 0 0 0 0 0 0 0 0 0 0 0 0 0 0 127 0" result="hardAlpha"/>
<feOffset dx="50" dy="50"/>
<feGaussianBlur stdDeviation="25"/>
<feColorMatrix type="matrix" values="0 0 0 0 0 0 0 0 0 0 0 0 0 0 0 0 0 0 0.25 0"/>
<feBlend mode="normal" in2="BackgroundImageFix" result="effect1_dropShadow"/>
<feBlend mode="normal" in="SourceGraphic" in2="effect1_dropShadow" result="shape"/>
</filter>
<filter id="filter4_d" x="182.705" y="125.973" width="111.652" height="111.652" filterUnits="userSpaceOnUse" color-interpolation-filters="sRGB">
<feFlood flood-opacity="0" result="BackgroundImageFix"/>
<feColorMatrix in="SourceAlpha" type="matrix" values="0 0 0 0 0 0 0 0 0 0 0 0 0 0 0 0 0 0 127 0" result="hardAlpha"/>
<feOffset dx="50" dy="50"/>
<feGaussianBlur stdDeviation="25"/>
<feColorMatrix type="matrix" values="0 0 0 0 0 0 0 0 0 0 0 0 0 0 0 0 0 0 0.25 0"/>
<feBlend mode="normal" in2="BackgroundImageFix" result="effect1_dropShadow"/>
<feBlend mode="normal" in="SourceGraphic" in2="effect1_dropShadow" result="shape"/>
</filter>
<clipPath id="clip0">
<rect width="40.04" height="40.04" fill="white" transform="translate(159.98 103.352)"/>
</clipPath>
</defs>
</svg>
