<svg width="360" height="360" viewBox="0 0 360 360" fill="none" xmlns="http://www.w3.org/2000/svg">
<rect width="360" height="360" fill="white"/>
<path d="M113.078 272.352H128.008V278H106.047V243.875H113.078V272.352ZM137.266 259.25L144.367 243.875H152.055L140.852 265.625V278H133.703V265.625L122.5 243.875H130.211L137.266 259.25ZM162.203 265.977V278H155.172V243.875H168.484C171.047 243.875 173.297 244.344 175.234 245.281C177.188 246.219 178.688 247.555 179.734 249.289C180.781 251.008 181.305 252.969 181.305 255.172C181.305 258.516 180.156 261.156 177.859 263.094C175.578 265.016 172.414 265.977 168.367 265.977H162.203ZM162.203 260.281H168.484C170.344 260.281 171.758 259.844 172.727 258.969C173.711 258.094 174.203 256.844 174.203 255.219C174.203 253.547 173.711 252.195 172.727 251.164C171.742 250.133 170.383 249.602 168.648 249.57H162.203V260.281ZM197.055 278.469C193.336 278.469 190.305 277.328 187.961 275.047C185.633 272.766 184.469 269.727 184.469 265.93V265.273C184.469 262.727 184.961 260.453 185.945 258.453C186.93 256.438 188.32 254.891 190.117 253.812C191.93 252.719 193.992 252.172 196.305 252.172C199.773 252.172 202.5 253.266 204.484 255.453C206.484 257.641 207.484 260.742 207.484 264.758V267.523H191.336C191.555 269.18 192.211 270.508 193.305 271.508C194.414 272.508 195.812 273.008 197.5 273.008C200.109 273.008 202.148 272.062 203.617 270.172L206.945 273.898C205.93 275.336 204.555 276.461 202.82 277.273C201.086 278.07 199.164 278.469 197.055 278.469ZM196.281 257.656C194.938 257.656 193.844 258.109 193 259.016C192.172 259.922 191.641 261.219 191.406 262.906H200.828V262.367C200.797 260.867 200.391 259.711 199.609 258.898C198.828 258.07 197.719 257.656 196.281 257.656ZM219.461 246.406V252.641H223.797V257.609H219.461V270.266C219.461 271.203 219.641 271.875 220 272.281C220.359 272.688 221.047 272.891 222.062 272.891C222.812 272.891 223.477 272.836 224.055 272.727V277.859C222.727 278.266 221.359 278.469 219.953 278.469C215.203 278.469 212.781 276.07 212.688 271.273V257.609H208.984V252.641H212.688V246.406H219.461ZM241.305 270.992C241.305 270.164 240.891 269.516 240.062 269.047C239.25 268.562 237.938 268.133 236.125 267.758C230.094 266.492 227.078 263.93 227.078 260.07C227.078 257.82 228.008 255.945 229.867 254.445C231.742 252.93 234.188 252.172 237.203 252.172C240.422 252.172 242.992 252.93 244.914 254.445C246.852 255.961 247.82 257.93 247.82 260.352H241.047C241.047 259.383 240.734 258.586 240.109 257.961C239.484 257.32 238.508 257 237.18 257C236.039 257 235.156 257.258 234.531 257.773C233.906 258.289 233.594 258.945 233.594 259.742C233.594 260.492 233.945 261.102 234.648 261.57C235.367 262.023 236.57 262.422 238.258 262.766C239.945 263.094 241.367 263.469 242.523 263.891C246.102 265.203 247.891 267.477 247.891 270.711C247.891 273.023 246.898 274.898 244.914 276.336C242.93 277.758 240.367 278.469 237.227 278.469C235.102 278.469 233.211 278.094 231.555 277.344C229.914 276.578 228.625 275.539 227.688 274.227C226.75 272.898 226.281 271.469 226.281 269.938H232.703C232.766 271.141 233.211 272.062 234.039 272.703C234.867 273.344 235.977 273.664 237.367 273.664C238.664 273.664 239.641 273.422 240.297 272.938C240.969 272.438 241.305 271.789 241.305 270.992Z" fill="#FF6243"/>
<path fill-rule="evenodd" clip-rule="evenodd" d="M179.872 70.2722C188.031 61.2933 199.697 56.0003 212.126 56C236.518 55.9992 255.743 78.2371 255.743 102.006C255.743 110.822 253.913 119.399 250.645 127.569C248.529 132.863 245.841 137.917 242.753 142.706C233.142 157.617 219.401 170.466 205.15 180.91C198.304 185.927 190.468 191.142 182.898 195.06C180.94 196.074 178.804 196.074 176.845 195.06C169.275 191.142 161.439 185.927 154.594 180.91C140.342 170.466 126.602 157.617 116.99 142.706C109.082 130.438 104 116.738 104 102.006C104 78.2374 123.225 55.9992 147.617 56C160.046 56.0003 171.712 61.2933 179.872 70.2722V70.2722Z" fill="#FF6243"/>
<path fill-rule="evenodd" clip-rule="evenodd" d="M212.126 62.5839C198.754 62.5852 186.422 69.8006 179.871 81.4587C173.321 69.8009 160.988 62.5852 147.617 62.5839C127.165 62.5839 110.583 81.5543 110.583 102.006C110.583 153.375 179.871 189.213 179.871 189.213C179.871 189.213 249.159 153.375 249.159 102.006C249.159 81.5543 232.578 62.5839 212.126 62.5839H212.126Z" fill="#FF6243"/>
<path fill-rule="evenodd" clip-rule="evenodd" d="M179.872 114.896H179.872C183.704 114.896 187.402 115.496 190.88 116.604C192.981 110.566 198.721 106.232 205.475 106.232C214.007 106.232 220.924 113.15 220.924 121.682C220.924 127.625 217.569 132.783 212.649 135.367C215.042 140.218 216.39 145.666 216.39 151.414V160.731C216.39 180.816 199.957 197.249 179.872 197.249H179.872C159.787 197.249 143.354 180.816 143.354 160.731V151.414C143.354 145.666 144.702 140.217 147.094 135.367C142.175 132.783 138.819 127.625 138.819 121.682C138.819 113.15 145.736 106.232 154.269 106.232C161.022 106.232 166.763 110.566 168.864 116.604C172.341 115.496 176.04 114.896 179.872 114.896ZM149.214 131.637C153.069 125.696 158.601 120.932 165.125 118.027C163.317 114.667 159.767 112.382 155.683 112.382C149.766 112.382 144.969 117.179 144.969 123.097C144.969 126.584 146.635 129.681 149.214 131.637V131.637ZM194.619 118.027C201.143 120.931 206.675 125.696 210.53 131.637C213.109 129.681 214.775 126.584 214.775 123.097C214.775 117.179 209.978 112.382 204.06 112.382C199.977 112.382 196.427 114.667 194.619 118.027Z" fill="white"/>
<path fill-rule="evenodd" clip-rule="evenodd" d="M179.872 155.561C180.209 155.191 180.691 154.972 181.204 154.972C182.21 154.972 183.004 155.89 183.004 156.871C183.004 157.235 182.928 157.589 182.794 157.926C182.706 158.145 182.595 158.354 182.468 158.551C182.072 159.165 181.506 159.695 180.919 160.126C181.531 162.254 183.492 163.81 185.817 163.81C188.599 163.81 190.861 161.582 190.914 158.811C190.91 158.779 190.908 158.746 190.908 158.712C190.908 158.241 191.291 157.858 191.763 157.858C192.234 157.858 192.617 158.241 192.617 158.712C192.617 158.753 192.614 158.794 192.608 158.833C192.544 162.529 189.528 165.505 185.817 165.505C183.258 165.505 181.031 164.09 179.872 161.999C178.714 164.09 176.486 165.505 173.927 165.505C170.216 165.505 167.201 162.529 167.136 158.833C167.131 158.794 167.128 158.753 167.128 158.712C167.128 158.241 167.51 157.858 167.982 157.858C168.454 157.858 168.837 158.241 168.837 158.712C168.837 158.746 168.835 158.779 168.831 158.811C168.884 161.582 171.145 163.81 173.927 163.81C176.253 163.81 178.214 162.254 178.826 160.126C178.239 159.695 177.673 159.165 177.277 158.551C176.95 158.045 176.74 157.479 176.74 156.871C176.74 155.89 177.534 154.972 178.541 154.972C179.054 154.972 179.535 155.191 179.872 155.561Z" fill="#FF6243"/>
<path fill-rule="evenodd" clip-rule="evenodd" d="M169.263 136.381C172.172 136.381 174.53 138.739 174.53 141.649C174.53 144.558 172.172 146.916 169.263 146.916C166.354 146.916 163.996 144.558 163.996 141.649C163.996 138.739 166.354 136.381 169.263 136.381ZM170.902 139.866C172.274 139.866 173.386 140.978 173.386 142.351C173.386 143.723 172.274 144.835 170.902 144.835C169.529 144.835 168.417 143.723 168.417 142.351C168.417 140.978 169.529 139.866 170.902 139.866Z" fill="#FF6243"/>
<path fill-rule="evenodd" clip-rule="evenodd" d="M190.481 136.381C187.572 136.381 185.214 138.739 185.214 141.649C185.214 144.558 187.572 146.916 190.481 146.916C193.39 146.916 195.748 144.558 195.748 141.649C195.748 138.739 193.39 136.381 190.481 136.381ZM188.842 139.866C187.47 139.866 186.358 140.978 186.358 142.351C186.358 143.723 187.47 144.835 188.842 144.835C190.215 144.835 191.327 143.723 191.327 142.351C191.327 140.978 190.215 139.866 188.842 139.866Z" fill="#FF6243"/>
<path d="M179.872 207.322C182.378 207.322 184.41 205.29 184.41 202.783C184.41 200.277 182.378 198.245 179.872 198.245C177.365 198.245 175.334 200.277 175.334 202.783C175.334 205.29 177.365 207.322 179.872 207.322Z" fill="#FF6243"/>
</svg>
