<svg width="360" height="360" viewBox="0 0 360 360" fill="none" xmlns="http://www.w3.org/2000/svg">
<rect width="360" height="360" fill="white"/>
<path d="M110.894 163.785H104.474L115.846 196.108H123.07L134.457 163.785H128.022L119.631 189.227H119.3L110.894 163.785Z" fill="#494949"/>
<path d="M146.582 196.581C152.228 196.581 156.108 193.819 157.117 189.605L151.786 189.006C151.014 191.057 149.121 192.131 146.66 192.131C142.97 192.131 140.525 189.7 140.478 185.549H157.354V183.797C157.354 175.29 152.244 171.55 146.282 171.55C139.342 171.55 134.816 176.648 134.816 184.129C134.816 191.736 139.279 196.581 146.582 196.581ZM140.494 181.698C140.667 178.605 142.954 176.001 146.361 176.001C149.641 176.001 151.849 178.4 151.881 181.698H140.494Z" fill="#494949"/>
<path d="M181.331 178.273C180.543 174.17 177.262 171.55 171.584 171.55C165.748 171.55 161.774 174.422 161.79 178.905C161.774 182.44 163.95 184.776 168.603 185.739L172.735 186.607C174.959 187.096 176 187.996 176 189.369C176 191.026 174.202 192.273 171.489 192.273C168.871 192.273 167.168 191.136 166.679 188.958L161.112 189.495C161.821 193.946 165.559 196.581 171.505 196.581C177.562 196.581 181.836 193.441 181.852 188.848C181.836 185.391 179.612 183.277 175.038 182.282L170.906 181.398C168.445 180.846 167.468 179.994 167.483 178.589C167.468 176.948 169.281 175.811 171.663 175.811C174.297 175.811 175.685 177.247 176.126 178.842L181.331 178.273Z" fill="#494949"/>
<path d="M198.657 171.866H193.878V166.057H188.168V171.866H184.73V176.285H188.168V189.763C188.137 194.325 191.449 196.566 195.739 196.439C197.363 196.392 198.483 196.076 199.098 195.871L198.136 191.405C197.821 191.484 197.174 191.626 196.464 191.626C195.029 191.626 193.878 191.121 193.878 188.816V176.285H198.657V171.866Z" fill="#494949"/>
<path d="M210.403 196.597C214.204 196.597 216.475 194.814 217.516 192.778H217.705V196.108H223.194V179.883C223.194 173.475 217.973 171.55 213.352 171.55C208.258 171.55 204.346 173.823 203.085 178.242L208.416 178.999C208.983 177.342 210.592 175.922 213.384 175.922C216.033 175.922 217.484 177.279 217.484 179.662V179.757C217.484 181.398 215.765 181.477 211.491 181.935C206.791 182.44 202.296 183.845 202.296 189.306C202.296 194.072 205.782 196.597 210.403 196.597ZM211.885 192.399C209.504 192.399 207.8 191.31 207.8 189.211C207.8 187.017 209.709 186.102 212.264 185.739C213.762 185.533 216.759 185.155 217.5 184.555V187.412C217.5 190.11 215.324 192.399 211.885 192.399Z" fill="#494949"/>
<path d="M234.644 181.903C234.644 178.4 236.758 176.379 239.77 176.379C242.719 176.379 244.486 178.321 244.486 181.556V196.108H250.195V180.672C250.211 174.864 246.899 171.55 241.899 171.55C238.272 171.55 235.78 173.286 234.676 175.985H234.392V171.866H228.935V196.108H234.644V181.903Z" fill="#494949"/>
<path d="M266.724 196.581C272.371 196.581 276.251 193.819 277.26 189.605L271.929 189.006C271.156 191.057 269.264 192.131 266.803 192.131C263.113 192.131 260.668 189.7 260.621 185.549H277.497V183.797C277.497 175.29 272.387 171.55 266.425 171.55C259.485 171.55 254.959 176.648 254.959 184.129C254.959 191.736 259.422 196.581 266.724 196.581ZM260.636 181.698C260.81 178.605 263.097 176.001 266.504 176.001C269.784 176.001 271.992 178.4 272.024 181.698H260.636Z" fill="#494949"/>
<path d="M301.474 178.273C300.685 174.17 297.405 171.55 291.727 171.55C285.891 171.55 281.917 174.422 281.932 178.905C281.917 182.44 284.093 184.776 288.746 185.739L292.878 186.607C295.102 187.096 296.143 187.996 296.143 189.369C296.143 191.026 294.345 192.273 291.632 192.273C289.014 192.273 287.311 191.136 286.822 188.958L281.254 189.495C281.964 193.946 285.702 196.581 291.648 196.581C297.704 196.581 301.979 193.441 301.994 188.848C301.979 185.391 299.755 183.277 295.181 182.282L291.049 181.398C288.588 180.846 287.61 179.994 287.626 178.589C287.61 176.948 289.424 175.811 291.806 175.811C294.44 175.811 295.828 177.247 296.269 178.842L301.474 178.273Z" fill="#494949"/>
<path d="M306.702 196.108H312.412V171.866H306.702V196.108ZM309.573 168.425C311.387 168.425 312.869 167.036 312.869 165.331C312.869 163.611 311.387 162.222 309.573 162.222C307.743 162.222 306.261 163.611 306.261 165.331C306.261 167.036 307.743 168.425 309.573 168.425Z" fill="#494949"/>
<path d="M325.254 196.597C329.055 196.597 331.326 194.814 332.367 192.778H332.556V196.108H338.045V179.883C338.045 173.475 332.825 171.55 328.203 171.55C323.109 171.55 319.198 173.823 317.936 178.242L323.267 178.999C323.835 177.342 325.443 175.922 328.235 175.922C330.885 175.922 332.336 177.279 332.336 179.662V179.757C332.336 181.398 330.617 181.477 326.342 181.935C321.642 182.44 317.147 183.845 317.147 189.306C317.147 194.072 320.633 196.597 325.254 196.597ZM326.737 192.399C324.355 192.399 322.652 191.31 322.652 189.211C322.652 187.017 324.56 186.102 327.115 185.739C328.613 185.533 331.61 185.155 332.351 184.555V187.412C332.351 190.11 330.175 192.399 326.737 192.399Z" fill="#494949"/>
<g clip-path="url(#clip0)">
<path d="M46.3122 202.897C46.8461 202.365 47.3506 201.805 47.8235 201.218L47.8723 201.15C49.7451 203.535 52.3377 205.387 54.8391 207.319C52.2693 209.334 49.8233 211.449 47.8691 213.929L47.7746 213.812C45.8204 211.38 43.4167 209.294 40.8926 207.319C42.7784 205.898 44.6837 204.5 46.3122 202.897ZM47.8691 211.543C49.2562 210.037 50.7519 208.635 52.3442 207.349C50.757 206.18 49.2609 204.892 47.8691 203.496C47.7127 203.659 47.5597 203.822 47.3903 203.992C46.1348 205.197 44.8043 206.321 43.407 207.358C44.9948 208.642 46.4862 210.041 47.8691 211.543V211.543Z" fill="#231F20"/>
<path d="M37.7724 174.932C37.7724 176.93 38.3646 178.884 39.474 180.545C40.5835 182.207 42.1603 183.502 44.0053 184.267C45.8502 185.031 47.8803 185.231 49.8389 184.842C51.7975 184.452 53.5965 183.489 55.0086 182.076C56.4206 180.663 57.3823 178.863 57.7718 176.903C58.1614 174.943 57.9615 172.912 57.1973 171.065C56.4331 169.219 55.139 167.641 53.4786 166.531C51.8182 165.421 49.8661 164.828 47.8691 164.828C45.1913 164.828 42.6232 165.893 40.7297 167.788C38.8362 169.682 37.7724 172.252 37.7724 174.932" fill="#3BDE77"/>
<path d="M43.338 156.488C43.3374 157.387 43.6034 158.266 44.1023 159.014C44.6012 159.762 45.3107 160.345 46.1408 160.689C46.9709 161.033 47.8844 161.123 48.7656 160.947C49.6468 160.771 50.4561 160.338 51.091 159.701C51.7259 159.065 52.1579 158.255 52.3322 157.373C52.5066 156.491 52.4155 155.577 52.0704 154.746C51.7254 153.916 51.1419 153.207 50.3939 152.709C49.6459 152.211 48.767 151.946 47.8685 151.948C47.2724 151.947 46.6821 152.064 46.1312 152.291C45.5804 152.519 45.0799 152.854 44.6584 153.276C44.237 153.697 43.9028 154.198 43.6751 154.749C43.4474 155.301 43.3306 155.891 43.3315 156.488" fill="#3BDE77"/>
<path d="M49.6372 151.785C50.4035 151.988 51.2098 151.987 51.9754 151.78C52.7409 151.574 53.4389 151.17 53.9995 150.609C54.5601 150.048 54.9637 149.35 55.1698 148.584C55.376 147.818 55.3774 147.011 55.1741 146.244C54.4078 146.04 53.6015 146.042 52.836 146.248C52.0704 146.454 51.3724 146.858 50.8118 147.419C50.2512 147.98 49.8476 148.679 49.6415 149.445C49.4353 150.211 49.4339 151.018 49.6372 151.785" fill="#3BDE77"/>
<path d="M46.3122 202.897C46.8461 202.365 47.3506 201.805 47.8235 201.218L47.8723 201.15C49.7451 203.535 52.3377 205.387 54.8391 207.319C52.2693 209.334 49.8233 211.449 47.8691 213.929L47.7746 213.812C45.8204 211.38 43.4167 209.294 40.8926 207.319C42.7784 205.898 44.6837 204.5 46.3122 202.897ZM47.8691 211.543C49.2562 210.037 50.7519 208.635 52.3442 207.349C50.757 206.18 49.2609 204.892 47.8691 203.496C47.7127 203.659 47.5597 203.822 47.3903 203.992C46.1348 205.197 44.8043 206.321 43.407 207.358C44.9948 208.642 46.4862 210.041 47.8691 211.543V211.543Z" fill="#3BDE77"/>
<path d="M43.4095 207.358C44.9962 208.642 46.4865 210.04 47.8683 211.543C49.2554 210.037 50.7512 208.635 52.3435 207.348C50.7562 206.18 49.2602 204.892 47.8683 203.496C47.712 203.659 47.5589 203.822 47.3896 203.991C46.1351 205.196 44.8057 206.321 43.4095 207.358V207.358Z" fill="#231F20"/>
<path d="M47.8684 209.301C48.4916 208.675 49.169 208.041 49.9008 207.397C49.22 206.847 48.5393 206.273 47.8814 205.663C47.23 206.279 46.5363 206.86 45.8523 207.41C46.5656 208.052 47.2463 208.681 47.8684 209.301Z" fill="#3BDE77"/>
<path d="M24.0931 183.885C24.0931 195.944 33.0792 201.179 40.896 207.329C42.7753 205.908 44.6806 204.506 46.3059 202.9C46.841 202.369 47.3476 201.811 47.8236 201.228L47.866 201.156C49.7453 203.542 52.3379 205.393 54.836 207.329C62.6561 201.185 71.6454 195.951 71.6454 183.885C71.698 180.315 70.7708 176.799 68.9649 173.719H61.6041C62.7803 175.719 63.3821 178.006 63.3433 180.326C63.3433 190.756 53.0056 193.363 47.8692 199.881L47.8269 199.79C42.658 193.334 32.3952 190.72 32.3952 180.326C32.3641 178.003 32.9762 175.716 34.1637 173.719H26.8029C24.9754 176.791 24.0372 180.311 24.0931 183.885" fill="#4593FD"/>
</g>
<defs>
<clipPath id="clip0">
<rect width="57.7379" height="80" fill="white" transform="translate(19 140)"/>
</clipPath>
</defs>
</svg>
